<?xml version="1.0" encoding="utf-8"?>
<!-- Generator: Adobe Illustrator 18.0.0, SVG Export Plug-In . SVG Version: 6.00 Build 0)  -->
<!DOCTYPE svg PUBLIC "-//W3C//DTD SVG 1.1//EN" "http://www.w3.org/Graphics/SVG/1.1/DTD/svg11.dtd">
<svg version="1.1" id="Capa_1" xmlns="http://www.w3.org/2000/svg" xmlns:xlink="http://www.w3.org/1999/xlink" x="0px" y="0px"
	 viewBox="0 0 64 64" enable-background="new 0 0 64 64" xml:space="preserve">
<g id="XMLID_1_">
	<g>
		<path fill="#1969AD" d="M50.1,21.3c0,2-0.4,3.9-1,5.7l-0.1,0.2C48.8,28,38.8,48.8,34.7,57.3c-1,2-2.5,2-3.5,0
			c-4.2-8.7-14.5-30.1-15-31.9l0-0.1c-0.3-1.3-0.5-2.7-0.5-4.1c0-9.5,7.7-17.2,17.2-17.2S50.1,11.8,50.1,21.3z M42.6,21.3
			c0-5.4-4.3-9.7-9.7-9.7s-9.7,4.4-9.7,9.7s4.3,9.7,9.7,9.7S42.6,26.6,42.6,21.3z"/>
	</g>
	<g>
	</g>
</g>
</svg>
