<?xml version="1.0" encoding="utf-8"?>
<!-- Generator: Adobe Illustrator 18.0.0, SVG Export Plug-In . SVG Version: 6.00 Build 0)  -->
<!DOCTYPE svg PUBLIC "-//W3C//DTD SVG 1.1//EN" "http://www.w3.org/Graphics/SVG/1.1/DTD/svg11.dtd">
<svg version="1.1" id="Capa_1" xmlns="http://www.w3.org/2000/svg" xmlns:xlink="http://www.w3.org/1999/xlink" x="0px" y="0px"
	 viewBox="0 0 600 600" enable-background="new 0 0 600 600" xml:space="preserve">
<path fill="#222221" d="M556.1,189.1l-122.9-87.3c-2.3-1.6-5.1-2.5-7.8-2.5c-2.7,0-5.5,0.8-7.8,2.4l-118.4,83l-115-82.9
	c-2.3-1.7-5.1-2.5-7.9-2.5c-2.7,0-5.4,0.8-7.7,2.4L43.9,189c-3.2,2.3-5.1,5.9-5.1,9.9v289.7c0,4.5,2.5,8.6,6.5,10.7
	c1.7,0.9,3.7,1.4,5.6,1.4c2.4,0,4.9-0.7,6.9-2.2l118.4-83l115,82.9c2.1,1.5,4.6,2.3,7,2.3h1.7c2.4,0,4.9-0.7,6.9-2.2l118.5-83
	l116.8,83c2.1,1.5,4.5,2.2,7,2.2c1.9,0,3.8-0.4,5.5-1.3c4-2.1,6.5-6.2,6.5-10.7V198.9C561.2,195,559.3,191.4,556.1,189.1z
	 M62.9,465.5V205.2l100.5-70.4v260.3h0L62.9,465.5z M412.5,395.1l-100.5,70.4v-1.1c-0.7,0.4-1.6,0.7-2.6,0.7h-20.3
	c-1.2,0-2.2-0.3-2.9-0.9v0.9l-97-69.9v-260l95.3,68.7h29.4l98.6-69.1V395.1z M537.1,465.3l-98.8-70.2V135l98.8,70.2V465.3z"/>
<path d="M386.9,377.3L386.9,377.3c0.1,0-46.7-47.5-51.3-52.1c-2.8-0.8-19.5-8.2-19.8-21.9c7.1-8.1,17.4-16,32.7-16.1
	c0,0,0.1,0,0.1,0c6.9,0.2,13.9-2.1,19.4-6.9c0.4-0.3,1.3-1.3,1.3-1.3l38.1-48l-4.6-4.6l-46.6,49.3l-5.5-5.5l48-48l-4-4l-48.3,48.3
	l-4.6-4.6l48.3-48.3l-4.4-4.4l-48.3,48.3l-5.4-5.4l49.8-46.7l-4.2-4.2l-45.9,35.8c0,0-1.7,1.4-2.2,2c-6.3,6.3-9,14.8-8.1,23.1
	c-0.6,10.4-4,18.2-8.4,24.1c-85.6-83.7-117.8-74.8-117.8-74.8l-2.6,2.6c0,0,57.5,57.7,93.1,93.3c-12.5,12.5-72.6,72.6-72.6,72.6l0,0
	c-0.1,0.1-0.1,0.1-0.2,0.1c-4.3,4.3-4.3,11.3,0,15.6c4.3,4.3,11.3,4.3,15.6,0c0.1-0.1,0.1-0.1,0.1-0.2l0,0c0,0,60.2-60.2,72.6-72.6
	c6.5,6.5,10.8,10.9,11.7,11.7c5.3,5.3,58.3,58.4,58.3,58.4h0.1c0,0.1,0.1,0.1,0.1,0.1c4.3,4.3,11.3,4.3,15.6,0
	c4.3-4.3,4.3-11.3,0-15.6C387,377.4,386.9,377.4,386.9,377.3z"/>
<line fill="none" x1="189.2" y1="135.2" x2="163.4" y2="135.2"/>
<line fill="none" x1="163.4" y1="395.1" x2="189.2" y2="395.1"/>
<line fill="none" x1="412.5" y1="134.8" x2="438.3" y2="134.8"/>
<line fill="none" x1="438.3" y1="395.1" x2="412.5" y2="395.1"/>
<line fill="none" x1="286.2" y1="205.1" x2="312.1" y2="205.1"/>
<polyline fill="none" points="312.1,465.5 312.1,463.1 299.1,473.5 286.2,465.1 "/>
<path fill="none" d="M286.2,463.1"/>
</svg>
