<?xml version="1.0" encoding="utf-8"?>
<!-- Generator: Adobe Illustrator 18.0.0, SVG Export Plug-In . SVG Version: 6.00 Build 0)  -->
<!DOCTYPE svg PUBLIC "-//W3C//DTD SVG 1.1//EN" "http://www.w3.org/Graphics/SVG/1.1/DTD/svg11.dtd">
<svg version="1.1" id="Capa_1" xmlns="http://www.w3.org/2000/svg" xmlns:xlink="http://www.w3.org/1999/xlink" x="0px" y="0px"
	 viewBox="0 0 2000 2000" enable-background="new 0 0 2000 2000" xml:space="preserve">
<g id="XMLID_1_">
	<g>
		<path fill="#FFFFFF" d="M1853.7,630.3c10.7,7.7,17,19.7,16.7,32.7v966c0,15-8.3,28.7-21.7,35.7c-5.7,3-12,4.3-18.3,4.3
			c-8.3,0-16.3-2.3-23.3-7.3L1417.7,1385l-395,276.7c-6.7,5-15,7.3-23,7.3H994c-8,0-16.3-2.7-23.3-7.7L587.3,1385l-394.7,276.7
			c-6.7,5-15,7.3-23,7.3c-6.3,0-13-1.7-18.7-4.7c-13.3-7-21.7-20.7-21.7-35.7V663c0-13.3,6.3-25.3,17-33L562,339
			c7.7-5.3,16.7-8,25.7-8c9.3,0,18.7,2.7,26.3,8.3l383.3,276.3L1392,339c7.7-5.3,17-8,26-8s18.3,3,26,8.3L1853.7,630.3z
			 M1790.3,1551V684L1461,450v867L1790.3,1551z M1375,1317V449.3l-328.7,230.3h-98l-317.7-229v866.7l323.3,233v-3c2.3,2,5.7,3,9.7,3
			h67.7c3.3,0,6.3-1,8.7-2.3v3.7L1375,1317z M544.7,1317V449.3L209.7,684v867.7L544.7,1317z"/>
		<path fill="#FFFFFF" d="M1358,770l-127,160c0,0-3,3.3-4.3,4.3c-18.3,16-41.7,23.7-64.7,23h-0.3c-51,0.3-85.3,26.7-109,53.7
			c1,45.7,56.7,70.3,66,73c15.3,15.3,171.3,173.7,171,173.7c0,0.3,0.3,0.3,0.3,0.3c14.3,14.3,14.3,37.7,0,52s-37.7,14.3-52,0
			c0,0-0.3,0-0.3-0.3h-0.3c0,0-176.7-177-194.3-194.7c-3-2.7-17.3-17.3-39-39c-20.7,20.7-81.2,81.2-136.5,136.5
			C812.2,1267.8,762,1318,762,1318c0,0.3,0,0.3-0.3,0.7c-14.3,14.3-37.7,14.3-52,0c-14.3-14.3-14.3-37.7,0-52c0.3,0,0.3,0,0.7-0.3
			c0,0,200.3-200.3,242-242C833.7,905.7,642,713.3,642,713.3l8.7-8.7c0,0,107.3-29.7,392.7,249.3c14.7-19.7,26-45.7,28-80.3
			c-3-27.7,6-56,27-77c1.7-2,7.3-6.7,7.3-6.7l153-119.3l14,14l-166,155.7l18,18l161-161l14.7,14.7l-161,161l15.3,15.3l161-161
			l13.3,13.3l-160,160l18.3,18.3l155.3-164.3L1358,770z"/>
	</g>
	<g>
	</g>
</g>
<line fill="none" x1="630.7" y1="450.7" x2="544.7" y2="450.7"/>
<line fill="none" x1="544.7" y1="1317" x2="630.7" y2="1317"/>
<line fill="none" x1="1375" y1="449.3" x2="1461" y2="449.3"/>
<line fill="none" x1="1461" y1="1317" x2="1375" y2="1317"/>
<line fill="none" x1="954" y1="683.7" x2="1040.3" y2="683.7"/>
<polyline fill="none" points="1040.3,1551.7 1040.3,1543.7 997,1578.3 954,1550.3 "/>
<path fill="none" d="M954,1543.7"/>
</svg>
