<?xml version="1.0" encoding="utf-8"?>
<!-- Generator: Adobe Illustrator 15.0.0, SVG Export Plug-In . SVG Version: 6.00 Build 0)  -->
<!DOCTYPE svg PUBLIC "-//W3C//DTD SVG 1.1//EN" "http://www.w3.org/Graphics/SVG/1.1/DTD/svg11.dtd" [
	<!ENTITY ns_extend "http://ns.adobe.com/Extensibility/1.0/">
	<!ENTITY ns_ai "http://ns.adobe.com/AdobeIllustrator/10.0/">
	<!ENTITY ns_graphs "http://ns.adobe.com/Graphs/1.0/">
	<!ENTITY ns_vars "http://ns.adobe.com/Variables/1.0/">
	<!ENTITY ns_imrep "http://ns.adobe.com/ImageReplacement/1.0/">
	<!ENTITY ns_sfw "http://ns.adobe.com/SaveForWeb/1.0/">
	<!ENTITY ns_custom "http://ns.adobe.com/GenericCustomNamespace/1.0/">
	<!ENTITY ns_adobe_xpath "http://ns.adobe.com/XPath/1.0/">
]>
<svg version="1.1" id="Calque_1" xmlns:x="&ns_extend;" xmlns:i="&ns_ai;" xmlns:graph="&ns_graphs;"
	 xmlns="http://www.w3.org/2000/svg" xmlns:xlink="http://www.w3.org/1999/xlink" x="0px" y="0px" width="1237px" height="633px"
	 viewBox="0 0 1237 633" style="enable-background:new 0 0 1237 633;" xml:space="preserve">
<style type="text/css">

	.st0{fill:#872200;}
	.st1{clip-path:url(#SVGID_2_);fill:#E88D00;}
	.st2{clip-path:url(#SVGID_2_);fill:#872200;}
	.st3{fill-rule:evenodd;clip-rule:evenodd;fill:#872200;}
	.st4{clip-path:url(#SVGID_2_);}
	.st5{fill:none;stroke:#FFFFFF;stroke-width:8;stroke-linecap:round;stroke-miterlimit:10;}
	.st6{fill:#FFFFFF;}
	.st7{clip-path:url(#SVGID_2_);fill:#2999EA;}
	.st8{clip-path:url(#SVGID_2_);fill:#FF180D;}
	.st9{clip-path:url(#SVGID_4_);fill:#FCD404;}


	#Chemin{display:none;}
	
	#Grignotin>#Chemin{
		display:initial;
		stroke-dasharray: 2000;
		stroke-dashoffset:0;
		-webkit-animation: dash 12s linear forwards;
		-o-animation: dash 12s linear forwards;
		-moz-animation: dash 12s linear forwards;
		animation: dash 12s linear forwards;
	}

	
	
	@-webkit-keyframes dash {
		from {
			stroke-dashoffset: 2000;
		}
		to {
			stroke-dashoffset: 0;
		}
	}

	
	/*#Mac_Do{display:none;}*/
	/*#Henri_Maus{display:none;}*/
	/*#Pizza_Hut{display:none;}*/
	/*#Ots{display:none;}*/
	/*#Friterie{display:none;}
		#Grignotin{display:none;}
	#Soeurs{display:none;}
	#Chez_Isa{display:none;}
	#Le_Delicio{display:none;}
	#Boulangerie{display:none;}*/
	
	
</style>
<switch>
	<g i:extraneous="self">
		<g>
			<defs>
				<rect id="SVGID_1_" width="1237" height="633"/>
			</defs>
			<clipPath id="SVGID_2_">
				<use xlink:href="#SVGID_1_"  style="overflow:visible;"/>
			</clipPath>
			<g class="st4">
				<defs>
					<rect id="SVGID_3_" width="1237" height="633"/>
				</defs>
				<clipPath id="SVGID_4_">
					<use xlink:href="#SVGID_3_"  style="overflow:visible;"/>
				</clipPath>
				
				<rect x="0.2" class="st9" width="1236.8" height="633"/>
			</g>
			<path class="st7" d="M881,522c-1.5-4.3-35.5,13.7-42,14.3c-25,2.2-41,2.4-65.1,0c-10.6-1.1-21.1-2.1-31.7-3.2
				c-1.5-0.2-3,0.1-4.5,0.3c-5.5,0.7-11,1.3-16.5,2c-15.6,1.9-31.3,3.8-46.9,5.7c-7.8,0.9-15.9,1.3-23.6,3
				c-25.6,5.6-51.2,11.3-76.8,16.9c-20.7,4.6-41.6,8.6-62.4,12.7c-0.3,0.1-0.5,0.1-0.7,0.1h-10h-3.1c-0.9-0.2-1.7-0.5-2.6-0.6
				c-12.9-2.6-25.9-5.3-38.8-7.9c-19.7-4-39.5-7.2-58.7-13.1c-14.9-4.6-29.7-9.1-44.6-13.7c-6.9-2.1-13.8-4-20.5-6.6
				c-35.2-13.5-70.1-27.5-104.9-41.9c-8.4-7.4-16.7-14.7-25.1-22.1c-4.2-3.7-8.3-7.3-12.5-11c0,0,0,0-0.1-0.1
				c-0.6-0.8-1.1-1.6-1.7-2.4c-15.4-22.5-30.7-45-46.1-67.5c-12.5-18.2-23.7-37.4-35.5-56.1c-3.3-5.2-6.7-10.2-9.3-15.7
				c-5.4-11.7-10.8-23.3-16.1-35c-6.4-13.8-12.8-27.7-19.2-41.5c-3.1-6.8-6.1-13.1-10.1-19.4c-12.5-20.3-24.7-40.6-37.1-61L0,133.7
				V180c5.8,9.5,11.5,19.1,17.3,28.6c8.3,13.7,17,27,23.7,41.6c11.8,25.6,23.6,51.2,35.4,76.7c2.5,5.5,5.9,10.3,9.1,15.4
				c8.3,13.2,16.6,26.4,25,39.6c10.5,16.7,21.7,32.9,32.8,49.2l23.9,35c1.5,2.3,3.2,5.5,5.3,7.4c3.6,3.2,7.3,6.4,10.9,9.6l28.9,25.4
				c3.3,2.9,8.4,4.5,12.5,6.2c6.9,2.9,13.8,5.7,20.7,8.6c21.2,8.9,42.6,17.2,64.1,25.5c20.4,7.8,40.9,14.1,61.8,20.5
				c10.4,3.2,20.9,6.4,31.3,9.6c8.1,2.5,17,3.4,25.3,5.1l46.5,9.4c8.8,1.8,17.3,4,26.3,4c5.5,0,11.1,0.4,16.4-0.6
				c5.3-1.1,10.6-2.1,15.9-3.2c13.7-2.7,27.3-5.4,41-8.1c22.7-4.5,45.4-10,68-14.9c4.8-1.1,9.6-2.1,14.4-3.2c1-0.2,2.6-0.4,1.9-0.4
				c13.1-1.6,26.2-3.2,39.3-4.8c13.3-1.6,26.7-3.3,40-4.9c5.4-0.7,10.5,0.3,15.9,0.8c28.6,2.9,69.8,1.5,43.1,18.5
				c-7.3,4.6,47.3-9.5,49.6-9.3C852.9,568.2,883,527.7,881,522"/>
			<path class="st7" d="M1237,296.4c-0.7,0.3-1.5,0.7-2.2,1c-20.2,10.3-40.3,20.5-60.5,30.8c-13,6.6-26.1,13.3-39.1,19.9
				c-4.6,2.3-9.6,4.3-13.9,7.1c-43.2,28.4-86.3,56.8-129.5,85.2c-35.9,23.6-70.5,49.4-105.5,74.3c-34.9,24.8-71.4,49.5-108.6,75
				c-6.4,4.4-12.8,8.8-19.2,13.2c-10.5,7.2-17.2,18.3-17.8,30.1h101.4c19.2-13,38.4-26.1,57.3-39.5c38.5-27.4,77-54.7,115.5-82.1
				c14.6-10.4,30.1-19.8,45.1-29.7c25.9-17.1,51.8-34.1,77.8-51.2c10.8-7.1,21.1-13.8,32.6-19.6c22.2-11.3,44.4-22.6,66.6-33.9
				V296.4z"/>
			<path class="st2" d="M592.2,401c-1.7,0-3.6-0.3-5.1,0.5c-1.9,1-3.8,2-5.6,2.9c-0.4-1.2-1-2.3-1.6-3.5c-1.6-3.7-3.3-7.4-4.9-11.1
				c-2.5-5.6-5.8-11-8.7-16.4c-2.5-4.6-12.7-1.3-16.3-0.9c-1.9,0.2-1.9,3.2,0,3c2.9-0.3,5.7-0.6,8.6-1c1.2-0.1,2.5-0.3,3.7-0.4
				c-0.2,0,1.7,1.1,1.7,1.3c2.8,5.2,6,10.3,8.4,15.7c1.3,2.9,2.5,5.8,3.8,8.7c0.7,1.6,1.4,3.2,2.1,4.8c0.2,0.5,0.5,1,0.7,1.5
				c0,0.1,0,0.1,0.1,0.1c0,0.1,0,0.2,0,0.3v5.1c0,0.4-0.3,1.6,0.2,0.6c-0.3,0.6-0.6,1.3-0.9,1.9c-1.3,2.8-2.6,5.7-4,8.5
				c-0.8,1.7,1.8,3.3,2.6,1.5c1.4-3.1,2.9-6.1,4.3-9.2c1.1-2.5,0.8-4.9,0.8-7.6c2-1.1,4-2.1,6.1-3.2c0.5-0.3,0.6-0.4,0.7-0.4
				c0,0,0.2,0.1,0.8,0.1h4.6c4.1,0,8,2.2,12.1,3.9c1.7,0.7,4.8,0.1,6.5,0.1c1.5,0,3.5,0.4,4.9-0.2c3.9-1.4,7.7-2.7,11.6-4.1
				c0.3,1.4,0.8,2.9,1,3.8c0.6,3.1,3.1,5.9,3.7,8.3c1,3.7,2,7.3,2.9,11c1.4,5.1,2.7,10.2,4.1,15.3c-0.9,0.2-1.8,0.5-2.7,0.7
				c-2.7,0.7-5.4,3-7.8,4.4c-5.2,3-9.9,7.3-14.7,10.9c-5.4,4-10.8,8.1-16.1,12.1c-1.5,1.1,0,3.8,1.5,2.6c5.1-3.8,10.2-7.7,15.4-11.5
				c4.8-3.6,9.5-8,14.7-11c2.2-1.3,5.9-4,7.7-4.5c1-0.3,1.9-0.5,2.9-0.8c3.9,14.7,7.8,29.4,11.8,44.1c0.5,1.9,3.4,1.1,2.9-0.8
				c-3.9-14.7-7.8-29.4-11.8-44.1c1-0.3,2-0.5,2.9-0.8c6.3-1.7,12.6-3.3,18.9-5c0,0.8,0,1.7,0.2,2.5c2.6,14.4,5.1,28.8,7.7,43.2
				c0.3,1.9,3.2,1.1,2.9-0.8c-0.5-2.6-0.9-5.3-1.4-7.9c7.8-1.8,15.6-3.6,23.4-5.4c1.9-0.4,1.1-3.3-0.8-2.9
				c-7.7,1.8-15.4,3.5-23.1,5.3c-1.9-10.4-3.7-20.9-5.6-31.3c-0.2-1-0.3-1.9-0.5-2.9c0-0.1,0-0.1,0-0.2c0,0,0,0,0-0.1
				c1-3.1,2-6.3,2.9-9.4c2.1-6.6,4.2-13.3,6.3-19.9c0.6-1.9-2.3-2.6-2.9-0.8c-2.1,6.6-4.2,13.3-6.3,19.9c-0.8,2.5-1.8,4.9-2.4,7.3
				c-6.4,1.7-12.8,3.4-19.2,5.1c-1.3,0.3-2.5,0.7-3.8,1c-1.2-4.3-2.3-8.7-3.5-13c-1.8-6.9-3.3-13.2-6.5-19.5
				c-0.9-1.8-1.1-4.1-1.5-6.2c0-0.2-0.1-0.3-0.1-0.4c0.7-0.9,1.4-1.8,2.1-2.7c3.2-4,6.4-8,9.5-12c1.2-1.5-0.9-3.6-2.1-2.1
				c-3.2,4-6.4,8-9.5,12c-0.8,1-1.8,2-2.5,3.1c-4.3,1.5-8.5,3-12.8,4.5c-2.2,0.8-9,0.5-11.4-0.5C600.6,402.4,597.5,401,592.2,401"/>
			<path class="st2" d="M1059.4,322.8c5.7,10.3,11.4,20.7,17.2,31c0.9,1.7,3.5,0.2,2.6-1.5c-5.7-10.3-11.4-20.7-17.2-31
				C1061,319.5,1058.4,321.1,1059.4,322.8"/>
			<path class="st2" d="M872.6,172.7c4.3,4.7,8.7,9.3,13,14c1.5,1.6,2.9,3.2,4.4,4.7c0.5,0.6,1.7,2.3,1.1,1l22.7,54.3
				c0.7,1.8,3.6,1,2.9-0.8c-7.4-17.7-14.8-35.5-22.2-53.2c9.6-4.6,19.2-9.1,28.8-13.7c4.2,4.5,4.3,11.6,8.8,16
				c1.8,1.8,5.1,0.1,6.9-0.6c4.3-1.7,8.6-3.5,13-5.2c0.4-0.2,0.8-0.3,1.2-0.5c0.1,0.1,0.4,0.3,0.6,0.6c1,0.9,1.1,0.9,1.6,2.1
				c1.5,3.6,3,7.1,4.6,10.7c3,6.9,5.9,13.8,8.9,20.8c0.8,1.8,3.3,0.2,2.6-1.5c-2.7-6.3-5.4-12.7-8.1-19c-2.5-5.8-4.1-12.1-8.8-16.4
				c-0.4-0.3-1-0.6-1.5-0.4c-3,1.2-6,2.4-9,3.6c-2.7,1.1-6.9,3.8-9.7,3.4c-0.7-0.1-1.2-0.5-1.8-2c-0.9-2.1-1.8-4.2-2.8-6.4
				c-1.5-3.4-2.2-5.6-5-8c-0.5-0.5-1.2-0.5-1.8-0.2c-9.9,4.7-19.8,9.4-29.7,14.1c-1.2-1.6-3.2-3.1-4.4-4.4
				c-4.4-4.8-8.9-9.5-13.3-14.3c-6.7-7.3-13.5-14.5-20.2-21.8c-1.3-1.4-3.4,0.7-2.1,2.1C859.5,158.7,866.1,165.7,872.6,172.7"/>
			<path class="st2" d="M1011.9,257.1c0.4,1.9,3.3,1.1,2.9-0.8c-3.2-16.4-6.4-32.8-9.6-49.2c-0.4-1.9-3.3-1.1-2.9,0.8
				C1005.5,224.2,1008.7,240.7,1011.9,257.1"/>
			<path class="st2" d="M803.4,461.8l7.5-3.1c1.8-0.7,1-3.6-0.8-2.9l-7.5,3.1C800.8,459.6,801.6,462.5,803.4,461.8"/>
			<path class="st2" d="M826.6,516.4c-0.8,2.7-1.6,5.5-2.4,8.2c-0.4,1.3-0.8,2.6-1.1,3.8c-0.1,0-0.1,0.1-0.2,0.1
				c-0.9,0.5-1.9,1-2.8,1.5c0.8-0.4-0.2-0.1-0.9-0.1h-3.7h-12.1c-10.8,0-21.3-0.5-32-1.3c-6.8-0.5-13.5-0.9-20.3-1.4
				c-3.4-0.2-7.1-0.8-10.5-0.3c-12,1.8-24.1,3.6-36.1,5.3c-10,1.5-20,2.9-30,4.4c-10.1,1.6-20.5,2.5-30.5,4.8
				c-25.4,5.9-50.8,11.8-76.3,17.7c-6.5,1.5-13.1,3.1-19.6,4.6v-19c0-1.9-3-1.9-3,0v19.7c-11.8,2.7-23.5,5.1-34.9,6.3
				c-5.1,0.5-10.2-0.3-15.2-0.7c-3.3-0.3-7.5-0.4-10.7-0.8c1.1-9.2,2.9-18.6,3-27.8c0.1-9,0.3-18,0.4-27c0-1.4,0-2.8,0.1-4.2
				c3,1.1,6.4,2.6,9.4,2.6h16.2c8.3,0,16.7-2.2,24.9-3.6c1.9-0.3,1.1-3.2-0.8-2.9c-5.2,0.8-11.2,2.2-16.6,2.9
				c-0.8-13-1.6-26-2.4-39.1c5.9-0.9,11.8-2.4,17.1-2.4c6.5,0,11.4-0.3,17.1,1.4c3.3,1,6.5,2,9.8,3c0,0,0,0,0.1,0
				c1,4.4,2.7,10.1,2.7,13.6v19c0,1.9,3,1.9,3,0v-19c0-4.5-1.6-9.2-2.7-13.6c1-0.2,1.9-0.5,2.8-0.6c4.3-0.8,8.1-1.4,12.2-3.1
				c5.1-2,10.1-4,15.2-6.1c1.8-0.7,1-3.6-0.8-2.9c-5.7,2.3-11.5,4.6-17.2,6.9c-4.6,1.8-9.7,2.2-14.5,3c1.3-0.2-1-0.5-1.7-0.7
				c-1.7-0.5-3.5-1.1-5.2-1.6c-2-0.6-4.5-1.8-6.7-2.2c-0.9-7.1-1.8-14.3-2.7-21.4c6.2-0.9,11.9-1.9,18-3.6
				c5.4-1.5,10.6-5.2,15.6-7.7c1.7-0.9,0.2-3.5-1.5-2.6c-5,2.6-10.4,5.9-15.4,7.5c-1.6-4.7-3.2-9.4-4.7-14.1
				c4.8-1.5,9.5-3.5,14.3-5.3c1.8-0.7,1-3.6-0.8-2.9c-8.8,3.4-16.6,7.1-25.6,6.9c-14.7-0.4-29.5-0.8-44.2-1.2
				c-9.8-0.3-19.5-0.7-29.3-1.1c0.1-16.7,0.2-33.3,0.3-50c10.8-1.6,21.7-3.1,32.5-4.7c5.9-0.8,11.8-1.7,17.6-2.5
				c7.8-1.1,13.6-1.4,21.5-1.4c1.9,0,1.9-3,0-3c-6.7,0-12.9,0.1-19.5,1.1c-4.6,0.7-9.1,1.3-13.7,2c0.2-6,0.5-12,0.7-18
				c0.1-1.5,2.1-5.9,3-7.5c1.7-3.3,3.4-6.6,5.2-9.8c0.9-1.7-1.7-3.2-2.6-1.5c-3.2,6.1-6.1,11.8-8.5,18.2c-1,2.7-0.3,7.1-0.4,9.9
				c-0.1,3.1-0.2,6.1-0.4,9.2c-0.8,0.1-1.6,0.2-2.5,0.4c-15.5,2.2-30.9,4.4-46.4,6.7c-1.9,0.3-1.1,3.2,0.8,2.9
				c3.2-0.5,6.4-1,9.6-1.4c-0.1,16.5-0.2,32.9-0.3,49.4c-10.4-0.5-20.7-1-31.1-1.6c-0.2,0-0.4,0-0.6,0c-0.4-0.3-1-0.3-1.5-0.1
				c-10.5-1-22.9-5.2-34.2-6c-15.3-1-30.3-1.7-45.7-1.7c-1.9,0-1.9,3,0,3c10.8,0,21.3,0.1,32.1,0.8c6,0.4,11.9,0.8,17.9,1.2
				c3.9,0.3,11.3,2.2,16.2,3.1c4.2,0.8,8.6,2.1,12.8,2.5V450c0,8.1,0.5,16.4-0.4,24.5c-2.4,20.6-4.5,41-5.8,61.7
				c-0.1,1.9,2.9,1.9,3,0c1.3-20.7,3.4-41.1,5.8-61.7c0.1-0.6,0.1-1.3,0.2-1.9c15.5-0.3,31-0.7,46.5-1c-0.1,6.6-0.2,13.1-0.3,19.7
				c-0.1,5.4-0.1,10.8-0.1,16.2c-0.2,0.5-0.3,1,0,1.5c-0.1,14.8-0.3,29.7-1.9,44.4c-0.6,5.2-1.1,10.3-1.7,15.5
				c-13.2-2.7-26.3-5.4-39.5-8c-20.4-4.1-39.8-11.2-59.5-17.7c-10.7-3.5-21.2-8-31.8-12c3.5-6.3,7-12.6,10.5-19
				c0.9-1.7-1.7-3.2-2.6-1.5c-3.6,6.5-7.1,12.9-10.7,19.4c-9.3-3.4-18.8-6.3-28.2-9.4c-7-2.3-13.9-4.7-20.9-7c-3.3-1.1-6-1.9-8.4-3
				c-10.2-4.6-20.2-9-30.6-13c-6.4-2.5-12.9-4.9-19.3-7.4c-0.5-0.2-1.6-0.9-0.5-0.1c-0.6-0.5-1.2-1-1.8-1.4l-9-7.2
				c-8.1-6.6-15.7-13.2-22.3-21.3c-11.7-14.4-22.2-30.1-33.2-46l-21.4-31c-1.8-2.7-3.7-5.3-5.5-8c-0.1-0.2-0.3-0.4-0.4-0.6
				c0.5,0.7,0.1-1,0.1-1.9c0-0.4,0-0.7-0.1-0.9c0.1-0.1,0.3-0.2,0.6-0.3c1.2-0.8,2.3-1.6,3.5-2.4c1.6-1.1,0.1-3.7-1.5-2.6
				c-1.4,0.9-5,2.4-5.4,4.2c-0.3,1.2-0.5,4.4,0.2,5.5l5.6,8.1c8.6,12.4,17.2,24.8,25.7,37.2c6.5,9.5,13.1,18.9,19.6,28.3
				c5,7.2,10.9,14.8,17.3,20.7c8.3,7.7,17.1,14.7,25.9,21.8c1,0.8,2.6,1.1,3.7,1.6l10.1,3.9c6.3,2.4,12.5,4.8,18.8,7.2
				c6.8,2.6,15.5,7.6,23.4,10.3l40.5,13.6c18.1,6.1,35.7,13.5,53.8,19.4c12.8,4.2,25.6,8.4,38.5,12.5c9.8,3.2,20.7,4.3,30.7,6.3
				c8.2,1.7,16.5,3.9,24.8,5c0.2,0.1,0.5,0.1,0.8,0.1c1.2,0.1,2.3,0.3,3.5,0.4c11.2,0.9,22.6,2.8,33.7,0.4
				c8.7-1.8,17.4-3.7,26.1-5.6c0.6,0.3,1.5,0.2,2-0.4c10.7-2.4,21.4-4.8,32.1-7.3c15.4-3.6,30.8-7.1,46.2-10.7
				c6.9-1.6,13.9-3.6,21-4.7c23.6-3.7,47.2-7.2,70.8-10.7c9.7-1.4,19.9-3.6,29-3.3c11.6,0.3,23.2,1.5,34.7,2.3
				c10.2,0.7,20.3,0.6,30.5,0.6h7.9c1.8,0,3.4-1.3,5-2.1c1.5-0.8,1.8-4,2.2-5.5c0.8-2.7,1.6-5.5,2.4-8.2
				C830,515.4,827.1,514.6,826.6,516.4 M534.1,464.8c-0.5-6.1-1-12.3-1.5-18.4c0-0.1,0-0.2,0-0.3c0,0,0.1-0.1,0.1-0.1
				c0.4-0.4,0.8-0.8,1.2-1.2c0.6-0.6,1-0.7,0.9-0.7h1.5c2.4,0,5,0.2,7.4,0.1c0.9,7,1.7,13.9,2.6,20.9
				C542.3,464.9,538,464.4,534.1,464.8 M536.4,424.6c5,0.1,10.9,1.2,15.9,0.2c1.2-0.2,2.3-0.5,3.4-0.8c1.6,4.7,3.2,9.4,4.7,14.1
				c-5.4,1.4-11.5,2.8-16.3,2.8H534c-1.5,0-4.6,3.3-4.5,4.7c0.5,6.5,1.1,13,1.6,19.5c-9.1,1.6-15.7,2.7-24.9,2.9l-18,0.4
				c0.2-13.5,0.4-27,0.6-40.5l0.1-4.7C504.8,424.1,520.6,424.2,536.4,424.6 M460,469.1c-7,0.1-14,0.3-21.1,0.4
				c0.3-6.2,0-12.5,0-18.6v-30.1c5.5,0.3,10.9,0.5,16.4,0.8c10.2,0.5,20.4,1,30.6,1.5c-0.2,15.1-0.5,30.3-0.7,45.4
				C476.9,468.8,468.5,469,460,469.1 M511.3,471.1c1.3,0,2.7-0.1,4-0.3c0.8,13,1.6,26,2.4,39c-1.3,0.1-2.6,0.2-3.8,0.2h-16.1
				c-2.6,0-6.7-1.7-10.1-2.8c0.2-11.9,0.4-23.8,0.5-35.7C495.9,471.4,503.6,471.2,511.3,471.1"/>
			<path class="st2" d="M263.7,265.8c2.1,1.5,4.2,3,6.3,4.5c1.6,1.1,3.1-1.5,1.5-2.6c-2.1-1.5-4.2-3-6.3-4.5
				C263.7,262.1,262.2,264.7,263.7,265.8"/>
			<path class="st2" d="M490.9,214.4c1.1,0.4,2.1,0.8,3.2,1.2c1.1,0.4,2,0.9,1.8,0.7c2,2.2,4,4.5,6.1,6.7c3.1,3.4,4.5,6.3,6.8,10.9
				c2,3.9,4.4,7.8,5.4,11.3c1.6,5.2,3.1,10.5,4.7,15.7c0.6,1.8,3.4,1.1,2.9-0.8c-0.9-3-1.8-6.1-2.7-9.1c13.7,1.7,27.1,3.7,40.9,2.2
				c1.9-0.2,1.9-3.2,0-3c-14.1,1.6-27.8-0.6-41.8-2.3c-0.4-1.4-0.8-2.7-1.2-4.1c-1.3-4.3-3.9-8.3-6-12.3c-2.3-4.5-4.2-7.6-7.5-11.3
				c-1.9-2.1-3.7-4.1-5.6-6.2c-1.2-1.4-4.4-1.8-6.1-2.5C489.8,210.9,489.1,213.8,490.9,214.4"/>
			<path class="st2" d="M566,225h20.6h4.9c1.7,0,0.9-0.1,1.9,0.5c0.3,0.2,0.5,0.3,0.6,0.3c0,0.1,0,0.2,0.1,0.3c0.3,1,0.7,2,1,3
				c0.4,1,0,3.5,0,4.8c0,2.7-0.8,6.4,0.9,8.6c2.3,3.1,3.1,1.3,6.3,2.5c1.8,0.7,3.6,1.3,5.4,2l1.2,2.9c0.2,0.5,0.3,1.6,0.5,0.6
				c-0.2,0.9-0.4,1.7-0.6,2.6l-1.3,5.6c-0.4,1.9,2.4,2.7,2.9,0.8c1.1-4.7,4.2-13.2-2.3-15.6c-1.8-0.7-3.5-1.3-5.3-2
				c-0.5-0.2-1-0.1-1.5-0.1h-1.8c-0.1,0-0.2,0-0.2,0c-1.1-1.4-1.1-1-1.1-3.2v-7.5c0-2.2-0.2-5.7-1.8-7.3c-2.1-2.1-3.8-1.9-6.5-1.9
				H566C564.1,222,564.1,225,566,225"/>
			<path class="st2" d="M563.1,157.4c4.2-0.7,9.2-0.8,13-2.7c1.6-0.8,5.5-1.8,6.5-3.5c1.2-2,1.7-4.6,2.4-6.7
				c0.4-1.1-0.1-2.7-0.3-3.8c-0.4-3.2-0.7-6.3-1.1-9.5c-0.6-4.9-1.2-9.8-1.7-14.7c-0.2-1.9-3.2-1.9-3,0c1.1,9.1,2.1,18.1,3.2,27.2
				c0.1,0.8-1.5,4.1-2,5.6c-0.5,0.2-0.9,0.5-1.4,0.7c-1.4,0.7-2.7,1.4-4.1,2c-3.1,1.5-8.5,1.7-12.3,2.4
				C560.4,154.9,561.2,157.8,563.1,157.4"/>
			<path class="st2" d="M464.4,83.9c1.9,12.5,3.7,24.9,5.6,37.4c1.6,10.4,8.5,20.8,13.1,30c0.9,1.7,3.5,0.2,2.6-1.5
				c-4.7-9.4-11.3-19-12.8-29.3c-1.9-12.5-3.7-24.9-5.6-37.4C467,81.2,464.1,82,464.4,83.9"/>
			<path class="st2" d="M931.4,118.1c0.2,0.2,0.6,0.4,0.6,0.6v0c0,1-0.5,3.6,0.4,4.4c0.8,0.7,1.8,1.9,2.9,1.9c1.2,0,3.3,0.4,4.4-0.2
				c2.1-1.2,4-4,5.3-6c1-1.6-1.6-3.2-2.6-1.5c-1.1,1.7-2.4,3.1-4.1,4.8c0,0,0,0-0.1,0h-2.4c-0.1,0-0.1,0-0.1,0c0,0-0.1-0.1-0.2-0.2
				c-0.2-0.2-0.4-0.4-0.6-0.5v-3.2c0-1.1-1.3-2-2-2.7c0-0.1,0-0.2,0-0.4c0-0.3,0-0.5,0-0.6c0,0,0.1-0.1,0.1-0.2
				c0.5-1.1,1.1-2.2,1.6-3.4c0.8-1.7-1.7-3.3-2.6-1.5c-0.9,1.9-3.2,5.2-1.9,7.4C930.5,117.3,931,117.7,931.4,118.1 M932,118.3
				C932,118.1,932,118.1,932,118.3"/>
			<path class="st2" d="M938.4,117.9c5.3-8.7,10.6-17.4,15.8-26c3.4-5.5,6.7-11,10.1-16.6c1-1.6,2-3.3,3-4.9
				c0.1-0.1,0.2-0.4,0.3-0.4h0.1h1.8c0.8,0,1.5-0.7,1.5-1.5V58c0-1.9-3-1.9-3,0v9.1c-2.6,0.3-3,1.4-4.6,4.1
				c-3.4,5.6-6.8,11.1-10.1,16.7c-5.8,9.5-11.6,19-17.4,28.6C934.8,118.1,937.4,119.6,938.4,117.9"/>
			<path class="st2" d="M1026.8,41.3c5.6-3.2,11.2-6.3,16.8-9.5c5.4-3,10.2-7.8,15.1-11.5c1.5-1.2,0-3.8-1.5-2.6
				c-5,3.8-10.1,7.7-15.1,11.5c-5,3.8-11.3,6.4-16.8,9.5C1023.6,39.7,1025.1,42.3,1026.8,41.3"/>
			<path class="st2" d="M259.4,533.9l-33.6-15.4c-2.5-1.2-5.1-2.3-7.6-3.5c-0.7-0.3-2.8-1.3-2.5-1.1c-3.4-3.1-6.8-6.2-10.2-9.3
				c-10.2-9.4-20.5-18.7-30.7-28.1c-1.3-1.2-1.5-1.5-2.9-3.5l-8.3-11.6l-50.7-70.7c-1.1-1.5-2.2-3.1-3.2-4.6
				c0.4-0.3,0.9-0.6,1.3-0.9c11.5-8.2,22.9-16.4,34.4-24.6c1.6-1.1,0.1-3.7-1.5-2.6c-11.4,8.1-22.7,16.2-34.1,24.4
				c-0.6,0.4-1.2,0.8-1.8,1.2c-9.7-14.7-17.9-30.6-26.8-45.8c-3.5-6-7.3-11.9-10.2-18.2c-5.7-12.4-11.4-24.9-17.1-37.3
				c-5-11-10.1-22.1-15.1-33.1c-4.3-9.3-10.6-18.1-15.8-26.9c-7.1-12-15-23.7-22.9-35.3v5.9l19.4,29.3c11.6,17.6,20.2,36.2,29,55.3
				c8.7,19.1,16.7,38.6,27.3,56.8c7.7,13.3,15.5,26.5,23.2,39.8c2.1,3.7,4.2,7.4,6.4,11c-2.6,1.4-5.4,2.7-8,4.1
				c-6.2,3.3-12.5,6.6-18.7,9.9c-1.7,0.9-0.2,3.5,1.5,2.6c5.9-3.1,11.9-6.3,17.8-9.4c2.9-1.5,6-3,9-4.6c0.4,0.7,0.9,1.3,1.3,1.9
				c16.5,23,32.9,45.9,49.4,68.9c3.3,4.5,6.5,9.1,9.8,13.6c1.2,1.7,2.3,3.9,3.8,5.3c8.6,7.9,17.3,15.8,25.9,23.6
				c5,4.5,9.9,9.1,14.9,13.6c2.3,2.1,5,3.1,7.9,4.4c12.6,5.8,25.3,11.6,37.9,17.4C259.6,537.3,261.1,534.7,259.4,533.9"/>
			<path class="st2" d="M468.6,60.9c-2.9,0.5-5.7,1.1-8.6,1.5c-2.2-20.9-4.3-41.4-6.5-62.4h-3c2.2,21,4.5,42.7,6.7,64.1
				c0.1,1,0.9,1.5,1.9,1.4c3.4-0.6,6.9-1.1,10.3-1.7C471.3,63.5,470.5,60.6,468.6,60.9"/>
			<path class="st2" d="M367.3,632.3c0.8-0.6,2.2-1.3,1.3-1.2c1.1-0.1,2.2-0.3,3.3-0.4c6.9-0.8,13.8-1.7,20.7-2.5
				c9.2-1.1,18.5-2,27.6-3.6c21.6-3.7,43.7-8.2,64.5-10.4c20.5-2.2,41-4.4,61.5-6.7c4.7-0.5,9.4-1.1,14.1-1.6c3.6-0.4,7.4-2,10.9-3
				c4-1.2,9.7-1.7,13.3-3.9c3.7-2.2,7-6.3,10.2-9.3c1.4-1.3-0.7-3.4-2.1-2.1c-2,1.8-4,3.6-6,5.5l-3.4,3c-0.2,0.1-0.2,0.2-0.3,0.3
				c-0.1,0-0.3,0-0.8,0.2c-6.6,1.9-13.2,3.8-19.8,5.7c-3.2,0.9-7.4,1.2-11.5,1.7c-7.6,0.9-15.2,1.8-22.8,2.6
				c-19,2.2-38.2,3.1-57,6.3c-11.9,2-23.8,4.1-35.6,6.1c-7.8,1.3-15.1,2.7-22.1,3.6c-9.5,1.2-19,2.5-28.5,3.6
				c-5.4,0.6-10.8,1.3-16.2,1.9c-2.4,0.3-5.1,2.8-7.4,4.9h5.3C366.7,632.8,367,632.6,367.3,632.3"/>
			<path class="st2" d="M654,609.1c0-2.3-4-5.6-5.3-7.3c-7.7-9.6-21.8-12.8-32.8-17c-1.8-0.7-2.6,2.2-0.8,2.9
				c5.9,2.2,11.8,4.5,17.6,6.7c3.4,1.3,9.7,4.3,11.9,7.1c2.1,2.6,4.3,5.3,6.4,7.9v2.1v6.4c0,0.5-0.3,1.4,0.2,0.4
				c-0.2,0.5-0.4,1-0.6,1.5c-0.8,1.8-1.6,3.6-2.4,5.5c-0.1,0.2-0.1,0.3-0.2,0.4l-1.3,0.3l-3.6,0.7c-0.6-0.9-1.2-1.7-1.8-2.6
				c-0.2-0.2-0.3-0.4-0.3-0.5c0.1-0.2,0.3-0.4,0.4-0.6c1.1-1.7,4.1-4.8,3.9-6.9c-0.2-2.1,0.2-4-1.7-5.3c-2.9-2.1-5.9-4.2-8.8-6.2
				c-3.3-2.4-9-2.8-13-2.6c-2.5,0.1-5.6-0.3-8,0.3c-1.9,0.5-3.8,4.7-4.9,6.2c0,0,0,0,0,0.1c-0.4,0.2-0.8,0.5-1.2,0.7
				c-1.4,0.9-2.9,1.7-4.3,2.6c-2.7,1.6-5.5,3.3-8.2,4.9c0.5-0.3-1.2,0.3-1.6,0.4c-1.9,0.5-3.8,1-5.8,1.6
				c-14.1,3.8-28.2,7.7-42.3,11.5c-3.5,1-7.1,1.9-10.6,2.9h11.4c11.2-3,22.3-6.1,33.5-9.1c4.7-1.3,9.5-2.6,14.2-3.9
				c3.1-0.8,5.5-2.5,8.3-4.2c2.7-1.6,5.4-3.2,8-4.8c1.9-1.1,3.2-4,4.4-5.8c0.1-0.1,0.1-0.2,0.2-0.3c0.2,0,0.5,0.1,0.9,0
				c1.7-0.1,3.5-0.1,5.2-0.2c2.6-0.1,5.5,0.5,8.5,0.9c4.3,0.6,8.2,4.5,12.1,7.2c0.2,0.1,0.3,0.2,0.4,0.2c0,0.1,0,0.1,0,0.2
				c0.2,1.9,0.5,2-0.1,3c-1.4,2.2-2.7,4.3-4.1,6.5c-0.3,0.4-0.3,1.1,0,1.5c1.1,1.6,2.2,3.1,3.3,4.7c0.4,0.6,1,0.8,1.7,0.7
				c1.5-0.3,6.8-0.4,7.6-2c1.2-2.7,2.9-5.5,3.7-8.4C654.8,616.4,654,612.3,654,609.1"/>
			<path class="st2" d="M1237,289.4c-15.5,7.9-31,15.7-46.6,23.6c-1.9-4.2-3.8-8.2-6.5-12c-0.6-0.8-1.6-1-2.4-0.3l-4.5,4.3
				c-1.3,1.2-1.1,3.2-1.4,4.9c-0.6,4.1,0,6.3,1.3,9.9c-20.8,10.6-41.7,21.1-62.5,31.7c-5.6,2.8-10.8,6.2-16.1,9.6
				c-8.7,5.5-17.6,10.8-26,16.7c-19.9,14.1-39.8,28.2-59.3,42.9c-3.6,2.7-7.2,5.4-10.8,8.1c-1.5,1.1,0,3.8,1.5,2.6
				c17.7-13.3,35.5-26.5,53.6-39.3c7.9-5.6,15.8-11.4,24-16.6c6.5-4.1,12.9-8.2,19.4-12.3c3.3-2.1,6.6-4.7,10.1-6.4
				c26.1-13.2,52.1-26.4,78.2-39.6c0.2,0.4,0.4,0.8,0.5,1.2c5.3,11.7,10.5,23.4,15.8,35.1c4.9,10.8,9.7,21.6,14.6,32.3
				c-13.6,6.5-27.2,13.1-40.9,19.6c-9.9,4.8-19.4,10.6-29,15.9c-8.3,4.6-16.9,8.8-24.8,14.1c-37,24.7-72.4,51.4-107.1,79.1
				c-35.6,28.4-77,52.4-116.4,76.7c-9.8,6-19,13-28.4,19.5c-10.7,7.4-21.5,14.9-32.2,22.3h5.3c17.6-12.2,35.2-24.4,52.9-36.6
				c18.4-12.7,38.1-23.7,57.2-35.4c17.1-10.5,33.4-22.1,50.1-33.3c7.8-5.2,14.9-11.9,22.3-17.8c6.9,7.3,13.8,14.6,20.7,21.9
				c1.3,1.4,3.5-0.7,2.1-2.1c-6.8-7.2-13.6-14.4-20.5-21.6c5.4-4.3,10.9-8.7,16.3-13c2.5-2,5.9-4.7,7.6-6
				c17.9-13.1,35.5-26.8,53.9-39.1c8.5-5.7,16.8-12,25.8-16.9c12.7-7,25.5-13.9,38.2-20.9c15.7-8.6,32-16.3,48.3-23.9
				c2.8,6.1,5.5,12.2,8.3,18.4c-4.3,2.1-8.7,4.1-13,6.2c-1.7,0.8-0.2,3.4,1.5,2.6c4.7-2.3,9.5-4.5,14.2-6.8c0.8-0.4,0.8-1.4,0.5-2.1
				l-8.8-19.6c4.4-2.1,8.8-4.1,13.2-6.2v-3.3c-4.8,2.3-9.6,4.6-14.4,6.9c-4.8-10.5-9.5-21.1-14.3-31.6
				c-5.3-11.8-10.6-23.6-15.9-35.4c-0.3-0.6-0.5-1.1-0.7-1.7c15.1-7.6,30.2-15.3,45.3-22.9V289.4z M1179.7,318.4
				c-1.2-3.1-1.6-4.3-1.1-7.8c0.3-2.4,0.2-3.2,1.1-4c0.9-0.9,1.8-1.7,2.7-2.6c2.1,3.3,3.8,6.7,5.4,10.3
				C1185.1,315.6,1182.4,317,1179.7,318.4"/>
			<path class="st1" d="M1151.2,211.7c6.8,6.9,10.3,12.8,14.5,21.8c1.6,3.5,6.8,0.5,5.2-3c-3.9-8.2-8.4-15.7-14.7-22.2
				c-7.1-7.3-13.9-15.1-21.4-21.9c-15.8-14.4-31.6-28.7-47.4-43.1c-2.9-2.6-7.1,1.6-4.2,4.2c15.7,14.3,31.4,28.6,47.1,42.9
				C1137.6,197,1144.3,204.6,1151.2,211.7"/>
			<path class="st1" d="M1216,304.7c-1.4-21-2.9-42.1-4.3-63.1c-0.3-3.8-6.3-3.9-6,0c1.4,21,2.9,42.1,4.3,63.1
				C1210.3,308.5,1216.3,308.5,1216,304.7"/>
			<path class="st1" d="M368.3,123.2c6.8-11.5,13.6-22.9,20.3-34.4c2-3.3-3.2-6.4-5.2-3c-6.8,11.5-13.6,22.9-20.3,34.4
				C361.1,123.5,366.3,126.5,368.3,123.2"/>
			<path class="st1" d="M489.7,86.1c3.3,2,6.3-3.2,3-5.2c-1-0.6-1.9-1.2-2.9-1.7c-0.6-0.4-1.3-0.8-1.9-1.1c1.5,0.9,0.5,0.3,0-0.8
				c-1-1.9-2-4-2-5.8c0-1.4,0-1.9,0.1-2.4l0.7-2.6c0.1-0.5,0.3-0.8,0.4-1c1.5-1.6,3-3.1,4.5-4.7c2.7-2.8-1.5-7-4.2-4.2
				c-1.8,1.8-5.3,4.2-6,6.7c-0.9,3.1-1.5,5.6-1.5,8.9c0,2.8,1.6,5.6,2.8,8.1C484.4,83.3,486.9,84.4,489.7,86.1"/>
			<path class="st1" d="M472.6,70.5c0.1,0.4,0.4,2,0.4,0.8c0,0.6,0,1.2,0,1.8c0,0.8,0,1.5,0,2.3c0,0.9-0.2,1.7-0.1,1.5l-1.4,2.9
				c-1.7,3.5,3.5,6.5,5.2,3c0.6-1.3,1.3-2.7,1.9-4c0.8-1.6,0.4-3.7,0.4-5.4c0-3.1-1-5.6-2-8.6c-1.2-3.6-7-2.1-5.8,1.6
				C471.7,67.7,472.2,69.1,472.6,70.5"/>
			<path class="st1" d="M1174.2,82.4c-7.1,0.7-14.1,0.6-21.2,0.6h-15V68c0-4.5-4.5-8.8-7.7-11.6c-1.5-1.4-3.3-3.7-5.3-4.3
				c-2.3-0.7-4.5-1.4-6.8-2c-7.1-2.1-14.2-4.3-21.3-6.4c-0.8-0.2-1.5-0.5-2.3-0.7c-0.1-0.1-0.2-0.2-0.4-0.3
				c-2.7-1.9-5.5-3.9-8.2-5.8c-2.9-2-5.7-4-8.6-6.1l-1.9-1.3c1.3,0.9-1-0.8-1.3-1.1c-5.1-4.1-10.2-8.2-15.3-12.3
				c-1.3-1.1-3-1.3-4.6-1.7c-3.8-1-7.6-2-11.4-3c-1.8-0.5-3.6-1-5.4-1.4c1.2,0.3-1.3-1.2-1.8-1.5c-1-0.8-2.1-1.5-3.1-2.3
				c1.7,1.3,0.7,0.4,0.1-0.9c-0.6-1.4-1.2-2.7-1.8-4.1c-0.2-0.4-0.3-0.7-0.5-1.1h-6.6c1.7,4.2,3.2,9.3,6.7,11.9
				c1.8,1.3,3.7,3.3,5.8,3.8c3.2,0.8,6.3,1.7,9.5,2.5l9.1,2.4c0.1,0,0.2,0.1,0.3,0.1c1,0.8,1.9,1.5,2.9,2.3c4.7,3.8,9.3,8,14.3,11.5
				c5,3.5,10,7.1,15,10.6c3.6,2.6,6.2,3.7,10.4,5c7.2,2.2,14.4,4.3,21.6,6.5c1,0.3,2.1,0.6,3.1,0.9c0.1,0,0.1,0,0.2,0.1
				c1.1,1,2.2,2,3.2,2.9c0.6,0.5,3.2,3.1,2.8,2.4c1,1.6,2.1,3.2,3.1,4.8c0,0.2,0,0.4,0,0.7v3.7V83h-21.6c-7.4,0-14.9-1.7-22.2-2.6
				c-15.4-2.1-30.9-4.1-46.3-6.2c-3.9-0.5-7.9-1-11.8-1.6c0,0-0.1-0.1-0.2-0.1c-1.3-0.5-2.6-1-3.9-1.5c-1.5-0.6-3-1.3-4.6-1.9
				c2.4-8.1,4.7-16.2,7.1-24.3c1-3.4,0.3-6-1.9-8.6c-2.4-2.8-4.6-6.1-7.4-8.5C1008.6,18.5,997.8,9.2,987,0h-9.2
				c12.1,10.3,24.2,20.7,36.3,31.1c2.1,1.8,3.6,3.8,5.4,5.9c1.2,1.4,2.3,2.8,3.5,4.2c0,0.2-0.3,2.4,0.1,1.2
				c-0.1,0.5-0.3,0.9-0.4,1.4c-2.3,8-4.7,16-7,23.9c-7.7-1.6-15.5-2.9-22.9-5.7c-23.5-8.8-47.1-17.6-70.6-26.5
				c6.4-11.8,12.9-23.6,19.3-35.4h-6.8c-6.2,11.3-12.4,22.7-18.5,34h-2.7c-0.5,0-1-0.1-1.1-0.1l-9.7-4.7c-5-2.4-10-4.8-14.9-7.2
				c4.2-7.3,8.3-14.6,12.5-22h-6.9c-3.7,6.4-7.3,12.9-11,19.3c-6.7-3.2-13.4-6.5-20.1-9.7C855.7,6.4,849,3.2,842.4,0h-13.7
				c18.1,8.8,36.2,17.5,54.3,26.3c9,4.4,18.1,8.7,27.1,13.1c1.4,0.7,2.8,0.6,4.4,0.6c0.7,0,3.9,0.3,2.8-0.1c0.4,0.1,0.7,0.3,1.1,0.4
				c4.3,1.6,8.7,3.3,13,4.9c14.7,5.5,29.4,11,44.2,16.6c7.7,2.9,15.4,6.4,23.4,8.2c5.9,1.3,11.9,2.6,17.8,3.9c4.5,1,8.5,4,13.1,4.6
				c11.2,1.5,22.4,3,33.6,4.5c13.7,1.8,27.5,3.7,41.2,5.5c7.7,1,15.6,0.5,23.3,0.5h39.7c8.2,0,16.7-1.6,24.8-2.4
				c14.9-1.5,29.7-2.9,44.6-4.4v-6C1216.1,78.3,1195.1,80.4,1174.2,82.4 M1131.9,67.7C1131.8,67.3,1131.9,67.2,1131.9,67.7"/>
			<path class="st1" d="M187,628.4c-1.6-3.4-2.8-4.3-6-6.1c-4.9-2.8-10-2.2-15.6-2.3c-2.1-0.1-4.7,0.9-6.7,1.4
				c-3.7,0.8-7.3,1.6-11,2.4c-0.3,0.1-0.7,0.1-1,0.2c-0.1,0-0.2,0-0.3,0h-6.2c-0.5,0-1.5-0.3-0.6,0c-0.6-0.2-1.2-0.5-1.8-0.7
				c-1-0.4-2.1-0.8-3.1-1.2c-0.3-0.7-0.5-1.4-0.8-2.1c-0.3-0.7-0.5-1.5-0.8-2.2c0-0.1-0.1-0.2-0.1-0.2c0-0.1,0-0.2,0-0.3v-4.3
				c0.1-0.1,0.1-0.2,0.2-0.4c0.6-1,1.3-2,1.9-3c0.4-0.6,0.7-1.1,1.1-1.7c1.4-0.9,2.8-1.7,4.2-2.6c0.7-0.5,1.3-0.6,1.4-0.7
				c0,0,0,0,0.1,0c11.1-0.6,22.3-1.2,33.4-1.8c23-1.2,46.3-1.6,69.3-3.7c17.3-1.6,34.5-2.9,51.8-4.1c3.2-0.2,6.3-1.5,9.3-2.3
				c3.6-1,7.1-1.7,10.2-3.8c3.1-2,6.9-3.6,8.5-7.1c1.5-3.5,3.1-7,4.6-10.4c15.7,5,31.1,10.2,47.2,13.5l80.6,16.3
				c7.4,1.5,14.9,3.4,22.5,3.6c13.6,0.4,27.3,0.8,40.9,1.2c3.1,0.1,6-0.4,9.1-0.9c7.6-1.2,15.2-2.4,22.9-3.5
				c9.6-1.5,18.8-4,28.2-6.4c5.8-1.5,11.5-3,17.3-4.5c5.6-0.4,11.2-0.7,16.8-1.1c4.8-0.3,9.8-1.1,14.6-0.9c3.2,0.2,6.5,0.4,9.7,0.5
				c1.7,0.1,3.4,0.2,5.1,0.3c1,0.1,2.6,0.5,1.6,0.1c6.1,2.3,12.2,4.6,18.3,6.9c0.9,0.3,1.8,0.7,2.6,1c-0.9-0.3,0.1,0.1,0.8,0.6
				c1.8,1.1,3.6,2.2,5.4,3.4c-3.8,10.4-7.3,21-10.8,31.6h6.3c3.1-9.5,6.3-19,9.7-28.4l2.8,1.7c0.2,0.1,0.4,0.2,0.5,0.3
				c0,0,0.1,0.1,0.1,0.1c2.2,2.2,4.3,4.4,6.5,6.6c6.3,6.4,12,12.9,17.7,19.6h7.9c-4.5-5.7-9.1-11.4-14.2-16.6
				c-4.6-4.7-9.2-9.4-13.8-14.1c-1.4-1.5-3.3-2.8-5.2-3.9c0.2-0.6,0.5-1.3,0.7-1.9c1.5,0.9,3.1,1.9,4.6,2.8c1.2,0.8,2.5,1.5,3.7,2.2
				c0.5,0.3,2,1.6,1.1,0.6c8.9,10.3,17.8,20.6,26.8,30.9h7.9c-6.8-7.9-13.7-15.8-20.5-23.7c-3.3-3.8-6.5-7.5-9.8-11.3
				c-1.2-1.4-2.9-2.6-4.8-3.6c-0.9-4.6-1.9-9.2-2.8-13.8c0.1-0.6,0-1.1-0.3-1.5c-0.2-0.9-0.4-1.9-0.6-2.8c23.6-2.1,47.3-1.3,71-1.3
				c3.9,0,3.9-6,0-6c-24.1,0-48.2-0.8-72.2,1.5c-5.6-27.2-11.1-54.5-16.7-81.7c3.4-0.8,6.8-1.7,10.3-2.6c6.7-1.8,13.3-3.7,20-5.3
				c2.2,2.1,5.7,4,7.3,5.3c6.2,4.9,12.5,9.9,18.7,14.8c4.6,3.6,9.2,7.3,13.8,10.9c3.3,2.6,4.5,4,7.5,7.9c3.4,4.4,6.7,8.7,10.1,13.1
				c2.3,3,7.5,0,5.2-3c-4-5.2-7.7-10.9-12.1-16c6.9,0.4,13.9,0.8,20.8,1.1c3.9,0.2,3.8-5.8,0-6c-9.1-0.5-18.3-1-27.4-1.5l-32.3-25.6
				l-3.7-2.9c0.7-0.2,1.5-0.3,2.2-0.5c7.6-1.6,15.2-3.2,22.7-4.7c3.9-0.8,8.6-1,12.1-2.9c5.5-3,9.8-5.3,14-9.8l3.8-4
				c0.7-0.8,1.6-1.5,1.1-1.2c3-1.6,6.1-3.3,9.1-4.9c0.2-0.1,0.3-0.2,0.5-0.3c5.3,7.9,9.9,14.3,13.1,22.2c4.7,11.5,9.3,23,14,34.6
				c1.4,3.5,7.2,2,5.8-1.6c-4.8-11.7-9.5-23.5-14.3-35.2c-0.4-1-0.9-2.1-1.4-3.1c5.2-1.4,10.3-2.8,15.5-4.2c3.7-1,2.1-6.8-1.6-5.8
				l-16.8,4.5c-2.9-5.1-6.3-9.9-9.6-14.9c2.4-2.2,4.6-4.6,6.9-6.9c1-1,1.9-1.9,2.9-2.9c0.1-0.1,0.2-0.2,0.2-0.2
				c0.1-0.1,0.3-0.2,0.6-0.4c3.2-2,6.4-4,9.6-6c4.3-2.7,7.3-3.5,13.4-3.3c1.5,0,3,0.1,4.5,0.1c1.5,0,0.4-0.1,2.5,0.4
				c2.8,0.6,5.3,1.1,8.2,1.1c2.4,0,4.6,0.1,6.9-0.5c2.7-0.6,6.7-0.8,9.2-2.3c3.5-2.1,8-3.9,10.7-7c9.1-10.5,18.1-20.9,27.2-31.4
				l4.8-5.6l1.1-1.3c0,0,0,0,0,0c0.1,0,0.1-0.1,0.2-0.2c4.1-2.8,8.2-5.6,12.3-8.4c2.3,3.8,4.7,7.6,7,11.4c1.9,3,3.8,6.1,5.6,9.1
				c0.9,1.4,1.8,3.8,3.3,4.7c5.6,3.3,10.6-0.5,15.5-3.1c1.5-0.8,2.9-1.5,4.4-2.3c0.9,1.4,1.9,2.8,2.8,4.2c0.2,0.2,0.3,0.5,0.5,0.7
				c-0.1,1.9-0.3,4,0.1,5.7c0.5,1.9,2.1,3.8,3.1,5.4c2.9,4.8,5.8,9.5,8.7,14.3c2,3.3,7.2,0.3,5.2-3c-2.5-4.1-4.9-8.1-7.4-12.2
				c3.2,3.2,6.3,6.3,9.5,9.5c2.7,2.7,7-1.5,4.2-4.2c-4.3-4.3-8.6-8.6-12.9-12.9c-4.2-4.2-5.6-5.9-8.5-10.1
				c24-12,47.9-24.1,71.9-36.1c1.6-0.8,3.1-1.6,4.7-2.4c4.7,9.2,9.4,18.3,14.1,27.5c1.8,3.4,6.9,0.4,5.2-3
				c-4.7-9.1-9.3-18.2-14-27.2c14-7.5,27.7-15.5,41.6-23.3c3.4-1.9,0.4-7.1-3-5.2c-13.5,7.5-26.8,15.4-40.4,22.7
				c-0.1-0.4-0.2-0.8-0.3-1.2c-1.3-6-2.6-11.9-3.9-17.9c-2.7-12.7-5.5-25.5-8.2-38.2c-0.2-1.2-0.5-2.3-0.7-3.5c0-0.1,0-0.1,0-0.2
				V278v-15.2c2.1-0.8,4.2-1.7,6.3-2.5c2.9-1.2,6.1-1.3,9.2-1.8c7.3-1,14.7-2.1,22-3.1c9.2-1.3,18.4-2.6,27.5-3.9c1-0.1,2-0.3,3-0.4
				c0,0,0.1,0,0.1,0c0,0,0.1,0,0.2,0c2.6-0.1,5.3-0.2,7.9-0.2c8.5-0.3,17-0.5,25.5-0.8c0.5,0.1,0.9,0.1,1.4,0
				c7.9-0.2,15.8-0.5,23.7-0.7c3.9-0.1,3.9-6.1,0-6c-5.9,0.2-11.8,0.4-17.7,0.5c1-1,2.2-2.3,2.4-3.4c0.7-3.3,1.3-6.7,2-10
				c0.8-3.8-5-5.4-5.8-1.6c-0.6,3.1-1.3,6.3-1.9,9.4c-0.8,0.9-1.5,1.8-2.3,2.7c-0.9,1-1.8,2.1-2.7,3.1c-3,0.1-5.9,0.2-8.9,0.3
				c-8.9,0.3-18-0.1-26.8,1.1l-41.8,5.9c-5.3,0.8-10.6,1.5-15.9,2.3c-4.4,0.6-8.9,3.2-13,4.9c-0.2,0.1-0.4,0.1-0.5,0.1
				c-0.5,0-1.1-0.1-1.6-0.1c-1.2-0.1-2.7-0.4-3.9-0.1c-2.7,0.8-5.5,3.1-7.9,4.6c-2.1,1.3-2.4,5.1-3,7.2c0,0.1-0.1,0.2-0.1,0.3
				c0,0.1-0.1,0.1-0.1,0.2c-0.5,0.8-0.9,1.7-1.4,2.5c-6.7,12.2-13.5,24.5-20.2,36.7c-1.8,3.2-3.9,6.2-5.9,9.2l-6.3,9.3
				c-0.7,1-1.4,2-2.1,3c-0.1,0.2-0.2,0.3-0.2,0.4c0,0-0.2,0.1-0.8,0.6c-2.6,2.3-5.3,4.6-7.9,6.9c-0.2,0.2-0.4,0.4-0.6,0.5
				c0,0-0.1,0.1-0.2,0.1l-2.9,1.8c-6.4,3.8-12.8,7.7-19.2,11.5c-0.2,0.1-0.4,0.3-0.7,0.4c-8.8-14.9-13.7-32.3-24.2-46.1
				c-8.8-11.5-17.5-22.9-26.3-34.4c-0.1-0.1-0.2-0.2-0.2-0.3c1.8-0.8,3.5-1.6,5.3-2.4c24.2-11,48.4-22,72.6-33
				c20.9-9.5,42.1-18.3,63.2-27.4l5.7-2.5c0.5-0.2,3-1.2,1.6-0.7c5.8-2.3,11.6-4.6,17.3-6.9c4.4-1.7,9.8-3,13.8-5.5
				c5-3.2,10-6.4,15-9.6c0,0,0,0,0.1,0c3.3-2.1,0.2-7.3-3-5.2c-4.9,3.2-9.9,6.3-14.8,9.5c-0.2,0.1-0.3,0.2-0.3,0.2c0,0,0,0,0,0
				c-0.9,0.4-1.8,0.7-2.7,1.1c-3.5,1.4-7,2.8-10.5,4.2c-8.2,3.3-16.4,6.5-24.6,10c-21.2,9.2-42.5,18-63.5,27.6L867.1,265
				c-2.1,1-4.3,1.9-6.4,2.9c-3.6-5.2-6.8-10.7-10.2-16c-7-10.9-14-21.8-21-32.7c-5.2-8.2-12.2-15.5-18.4-23.1c0.3-0.3,0.6-0.6,1-0.9
				c19.3-18.6,38.5-37.1,57.8-55.7c14.4-13.9,29.9-27,42.1-42.8c2.3-3-1.9-7.3-4.2-4.2c-12.5,16.1-28.2,29.4-42.8,43.5
				c-2.4,2.4-4.9,4.7-7.3,7.1c-18.8-10.5-37.4-21.5-57.1-30.4c-2.8-1.3-5.6-2.6-8.4-3.9c8.9-16.9,17.8-33.8,26.7-50.7
				c1.8-3.4-3.4-6.5-5.2-3c-9,17-17.9,34.1-26.9,51.1c-17.4-8.4-34.5-17.3-51.7-26c-11.9-6-23.2-12.7-34.7-19.6
				c-3.3-2-6.3,3.2-3,5.2c7.9,4.8,15.7,10,24,14.2c12,6,23.9,12.1,35.9,18.1l26.7,13.4c-9,17.1-18,34.2-27,51.3
				c-15.3-5.2-30.5-10.8-46-15.5c-2-7.8-4.1-15.7-6-23.4c-4.4-18.3-8.9-36.7-13.3-55c-0.9-3.8-6.7-2.2-5.8,1.6
				c5.8,24,11.6,48,17.4,72c0.2,0.9,0.5,1.9,0.7,2.8c-0.7-0.2-1.5-0.4-2.2-0.6c-16.5-4.5-32.9-9.1-49.5-13.4l24.3-59
				c1.5-3.6-4.3-5.1-5.8-1.6c-8.1,19.7-16.2,39.4-24.4,59.1c-2.5-0.6-5.1-1.3-7.7-1.9l-59.6-14.7c-1.2-0.3-2.5-0.6-3.7-0.9
				c-0.2-0.1-0.5-0.2-0.8-0.2c-0.4-0.1-0.8-0.2-1.2-0.3c1.1,0.3-0.2-0.1-1-0.5c-1.9-0.9-3.7-1.7-5.6-2.6
				c-7.8-3.6-15.6-7.2-23.4-10.9c-3.5-1.6-6.5,3.6-3,5.2c0.6,0.3,1.2,0.6,1.9,0.9c0.1,0.2,0.3,0.5,0.5,0.7c2,1.8,3.9,3.6,5.9,5.5
				c2.2,2.1,3.4,3,4.3,4.4c0.7,1.1,1.3,2.1,1.9,3.1c-3.3,1-6.6,1.9-9.9,2.9c-2.5,0.7-6.8,1.1-8.7,3.1c-1.8,2-3.7,4-5.5,6
				c-0.9,1-1.9,1.3-1,1.1c-1.4,0.4-2.8,0.7-4.2,1.1c-0.1,0-0.2,0-0.2,0.1c0,0,0,0-0.1,0c-0.5,0-1-0.1-1.5-0.1l-5.7-0.3
				c-5.9-0.3-11.9-0.7-17.8-1L473,129c-3.9-0.2-3.8,5.8,0,6l27.3,1.6c5.9,0.3,11.9,0.7,17.8,1c2.6,0.1,5.9,0.9,8.5,0.3
				c1.9-0.5,5.4-0.7,6.8-2.2c1.5-1.7,3.1-3.4,4.6-5.1c0.7-0.8,1.5-1.6,2.2-2.4c1.8-0.5,3.6-1.1,5.5-1.6c4-1.2,7.9-2.3,11.9-3.5
				c0.5,1,1,2.1,1.5,3.2c0.3,10.6,0.6,21.2,0.8,31.7h-15c-0.4,0-0.6,0-0.7,0c-0.4-0.1-0.9-0.2-1.3-0.2c-2.6-0.5-5.2-0.9-7.8-1.4
				c-13.8-2.5-27.6-5-41.4-7.5c-8.6-1.6-17.5-2.2-26.2-3.2c-12.4-1.5-24.7-2.9-37.1-4.4c0.4-18.7,1.6-37.5,2.4-56.2
				c0.2-3.9-5.8-3.9-6,0c-0.8,19.9-2.2,39.9-2.5,59.9c-0.3,24.6-0.6,49.3-1,73.9c-0.3,20.6-0.5,41.2-0.8,61.9
				c-0.2-0.1-0.5-0.3-0.7-0.4c-12.9-7.5-25.8-15-38.7-22.4l-14.9-8.7c-0.3-0.2-1.9-1.2-2-1.2c-0.1-0.1-0.2-0.1-0.3-0.2l-2.2-1.8
				l-33.6-27.5c-17.3-14.1-33.4-29.5-49.8-44.6c-13.7-12.6-28.9-23.6-43.6-35c-0.3-0.2-0.6-0.5-1-0.7c7.4-11.7,14.8-23.5,22.1-35.2
				c2.1-3.3-3.1-6.3-5.2-3c-7.2,11.5-14.5,23.1-21.7,34.6c-12.2-9.3-24.8-18.1-37.2-27.1c-3.1-2.3-6.1,2.9-3,5.2
				c12.8,9.4,25.1,18.2,36.9,27.1c-17.5,27.8-35,55.7-52.5,83.5c-9.6,15.3-19.2,30.7-28.8,46c-9.9,15.8-20.2,31-30.9,46.2
				c-0.7-1-1.4-1.9-2.1-2.9c-2.9-3.9-4.5-9.8-6.5-14.2c-1.3-2.8-2.6-5.6-3.8-8.4c-0.2-0.4-0.4-0.9-0.4-0.9c-0.2-0.6-0.4-1.2-0.6-1.8
				c-2.3-6.9-4.6-13.7-6.9-20.6c-1.6-4.7-2.7-9.9-4.9-14.3l-14.8-30.3c-3.3-6.7-6.5-13.3-9.8-20c-1.2-2.5-2.3-5.4-3.8-7.8
				c-8.5-13.3-17.1-26.5-25.5-39.9C73.2,130,109.6,105.5,146,81c0,0,0,0,0.1,0c3.2-2.1,0.2-7.3-3-5.2c-36.5,24.6-73,49.1-109.5,73.7
				c-0.3-0.5-0.6-1-0.9-1.4c4.3-9.6,8.5-19,11.5-29.1c1.3-4.2,0.7-9.6,0.9-13.9l1.3-22.5c0.1-1,0.1-2,0.2-3c0-0.5,0.4-1.6,0-0.4
				l1.4-4.4c0.3-0.8,0.5-1.6,0.8-2.5c0-0.1,0-0.1,0.1-0.2c1.1-1.1,2.2-2.1,3.4-3.2c0.4-0.4,3.1-2.6,1.9-1.9c2.5-1.6,5-3.2,7.5-4.9
				c2.6-1.7,5.3-3.4,7.9-5.1c0.1-0.1,0.2-0.1,0.2-0.1c0.4-0.1,0.7-0.2,1.1-0.3c2-0.5,4.1-1.1,6.1-1.6c2.3-0.6,4-1.5,6.1-2.6
				c1.4-0.8,2.8-1.6,4.2-2.4c0,0,0.1,0,0.1-0.1c0.8-0.2,1.6-0.5,2.3-0.7c3.3-1,6.6-2.1,9.9-3.1c3.7-1.2,2.1-7-1.6-5.8
				c-4.9,1.6-10.4,2.6-14.9,5.2c-5.7,3.2-8.6,4-15.4,5.8c-2.1,0.5-4.1,2.5-5.9,3.6c-3.2,2.1-6.4,4.1-9.6,6.2c-3.4,2.2-8,5.8-9.3,9.7
				c-1.6,4.7-2.4,8.3-2.7,13.2c-0.5,7.7-0.9,15.3-1.4,23c-0.2,2.9-0.3,5.8-0.5,8.8c0,0.6-0.1,1.2-0.1,1.9c-0.2,0.7-0.4,1.4-0.6,2.1
				l-1.6,5.4c-0.2,0.7-0.9,2.8-0.5,1.8l-3.7,8.2c-1,2.3-2.1,4.7-3.1,7c-1.5-2.4-3.1-4.9-4.6-7.3C17.2,123.1,8.4,112.5,0,101.9v9.6
				c1.1,1.4,2.2,2.8,3.3,4.2c0.3,0.4,2.4,3.1,1.5,1.9c3.7,5.1,7.4,10.2,11.2,15.3c6.1,8.3,11.1,17.6,16.5,26.3
				c6.5,10.6,13.4,20.9,20.2,31.3c4.4,6.8,7.8,13.8,11.4,21.1c6.5,13.2,12.9,26.5,19.4,39.7c0.6,1.3,1.2,2.5,1.9,3.8
				c0.3,0.9,0.6,1.7,0.9,2.6c2.4,7,4.7,14,7.1,21c3.6,10.7,7.8,20.5,12.5,30.8c4.2,9.2,10.6,16.7,16.6,24.7
				c29,39.1,57.5,78.5,86.2,117.8c4.1,5.6,7.9,11.1,11.6,16.9c1.4,2.2,4.9,3.8,7,5.3c2,1.4,4,2.7,6.1,3.9c4.1,2.5,7.9,4.8,12.2,6.8
				c8.5,3.9,17.2,7.7,25.6,11.8c-6.1,15.1-12.2,30.2-18.3,45.3c-2.9,0-5.8,0.3-8.6,0.4c-39.3,1-78.5,2-117.8,3
				c-11.9-6.9-23.8-13.7-35.8-20.4c16.4-31.4,32.7-62.7,49.1-94.1c1.8-3.4-3.4-6.5-5.2-3c-16.4,31.4-32.8,62.8-49.1,94.2
				c-16.8-9.3-33.8-18.6-50.6-27.8c11.8-20.4,23.6-40.9,35.4-61.3c3-5.3,6.1-10.5,9.1-15.8c1.2-2.1,3.1-4.4,3.7-6.7
				c0.6-1.9,2-4.7,1.1-6.7c-1.1-2.7-2-5.7-3.5-8.3c-0.7-1.3-1.4-2.5-2.1-3.8c-25.7-47.3-51.4-94.6-77.2-142
				c-0.5-0.8-0.9-1.7-1.4-2.5v12.6c20.5,37.7,41,75.4,61.4,113.1c4.2,7.8,8.5,15.6,12.7,23.5c1.6,2.9,1.1,2,2.6,5.5
				c0.5,1.1,0.9,2.2,1.4,3.3c0,0.2-0.1,0.3-0.1,0.6l-0.7,2.5c0,0.1-0.1,0.2-0.1,0.3c-0.2,0.4-0.5,0.8-0.7,1.3
				c-13.7,23.7-27.3,47.3-41,71l-6.2,10.7c-5.9-3.2-11.7-6.4-17.6-9.7c-3.9-2.2-7.9-4.4-11.8-6.5v6.9c27.5,15.3,54.9,30.5,82.4,45.8
				c-0.6,2.9,3.2,5.1,5.1,2.8l32.8,18.2c1.2,0.7,2.4,1.3,3.6,2c0.2,0.1,0.4,0.3,0.6,0.3c15.2,8.6,30.1,17.8,45.2,26.7
				c3.7,2.2,8.9,2.9,13,4.2c6.3,2,12.7,4,19,6c3.7,1.2,8.2,1,12.1,1.4c7.4,0.7,14.9,1.5,22.3,2.2c3.2,0.3,6.4,0.7,9.5,1
				c-11,0.9-22.1,1.7-33.1,2.3c-16,0.8-32,1.7-48,2.5c-5.8,0.3-11.7,0.6-17.5,0.9c-2,0.1-5.8-0.4-7.7,0.7c-2.2,1.3-4.4,2.7-6.6,4
				c-2.2,1.4-3.7,5.2-5.1,7.3c-2.4,3.7,0.2,12,2.3,15.5c1.2,2.1,5.8,3,7.9,3.8c2.5,1,6.1,0.3,8.8,0.3c5.5,0,11.6-2.3,17-3.5
				c3.1-0.7,1.6-0.5,4.8-0.4c1.8,0.1,3.6,0.1,5.5,0.2c0.7,0,1.4,0,2.1,0.1c1.3,0.7,2.5,1.5,3.8,2.2c0.3,0.2,0.7,0.4,1,0.6
				c0.1,0.1,0.3,0.4,0.5,0.8c0.6,1.2,0.9,2.2,1.3,3.1h6.3C188.1,631.5,187.6,629.9,187,628.4 M70,56.7C70.1,56.7,70.2,56.7,70,56.7
				 M38.4,117.5c0,0.1,0,0.2,0,0.2C38.3,118.1,38.2,118.1,38.4,117.5 M78.2,404.9C78.1,404.5,78.2,404.5,78.2,404.9 M674.8,595.5
				c-1.4-0.8-2.8-1.5-4.1-2.3c-4.2-2.6-9.1-3.9-13.7-5.6c-0.1-0.1-0.3-0.1-0.4-0.2c3.4,0.9,6.9,1.9,10.3,2.9
				c0.3,0.2,0.7,0.3,1.1,0.3c0.5,0.2,1,0.3,1.6,0.5c0,0,0.1,0,0.1,0c0.1,0,0.2,0.1,0.3,0.2l3.7,1.7c0.5,0.3,1.1,0.5,1.7,0.7
				C675.2,594.4,675,594.9,674.8,595.5 M664.8,483.6c-4.2,1.1-8.5,1.8-12.8,2.6c-3.3,0.6-6.7,1.3-10,1.9c-0.4,0.1-2.7,0.3-1,0.2
				c-0.8,0-1.7,0.1-2.5,0.1c-7.2,0.3-14.4,0.7-21.6,1c-1,0-2,0.1-3,0.1c-0.1-0.1-0.3-0.3-0.6-0.6c-0.2-0.2-0.4-0.3-0.5-0.4
				c-0.1-0.2-0.2-0.5-0.3-0.7c-4.1-8-8.3-16-12.4-24c-14.1-27.2-28.2-54.5-42.3-81.7c-3.1-6.1-6.3-12.1-9.4-18.2
				c0.6,1.2-0.4-2.5-0.5-3.1c-0.1-0.7-0.7-4.4-0.7-3.1v-6.8v-15.8c9.4,1.9,19.3,3.2,28.3,6.2c5.5,1.8,7.6,3.1,13.1,6.5
				c2.8,1.7,5.4,3.6,8.1,5.6c8.7,6.5,17.3,13,26,19.4c8.3,5.9,16.6,11.9,24.9,17.8c0.1,0,0.1,0.1,0.2,0.1
				c-5.5,8.2-11,16.3-16.5,24.5c-2.2,3.2,3,6.2,5.2,3c5.4-8,10.8-16,16.2-24c4.7,3.4,9.4,6.7,14.1,10.1c2.1,1.5,4.3,3,6.4,4.6
				l1.8,1.3c0.1,0.1,0.2,0.2,0.3,0.2c-0.1,0-0.1,0,0.1,0.1c1.8,1.9,3.3,3.6,5,5.1c1.6,4.7,2.9,9.6,5.2,14.1c0.9,1.7,1.7,3.4,2.6,5.1
				c0.2,0.5,1.6,3.6,1.2,2.2c0.7,2.6,1.5,5.3,2.2,7.9c1,3.4,1.9,6.8,2.9,10.3c0.2,0.8,0.4,1.6,0.7,2.3c-0.4-1.6,0.1,1.4,0.1,1.9
				c0.3,3.7,0.5,7.3,0.8,11c0.1,1.4,0.1,2.9,0.1,4.4C685.6,477.5,675.2,480.8,664.8,483.6 M667.5,515.9c-10.1,1.8-20.2,3.6-30.3,5.4
				c-7.4,1.3-14.7,2.6-22.1,3.9c-2,0.3-4,0.6-6.1,0.9c-1.3-8.1-2.6-16.3-3.9-24.4c0.5-0.4,0.9-0.8,1.2-1.3l3.7-5.9
				c1,0.7,2.1,1.2,3.3,1.1c10.6-0.5,21.7-0.1,32.1-2.1c5.6-1.1,11.2-2.2,16.7-3.4C664,498.7,665.8,507.3,667.5,515.9 M697.1,352
				c0.6,0.4,1.3,0.9,1.9,1.3c2,1.4,4.1,2.7,6.1,4.1c1.2,0.8,2.4,1.6,3.7,2.5c0,0.2,0.1,0.4,0.2,0.6c0.1,0.4,0.3,0.8,0.4,1.3
				c-10.9,14.1-21.8,28.2-32.8,42.3c-2.2-1.7-4.8-3.1-7-4.6c-2.9-2.1-5.8-4.1-8.7-6.2l26.6-33.5c1.9-2.4,3.8-4.8,5.7-7.1
				c0.1-0.2,0.3-0.3,0.4-0.5h1H697.1z M696.8,351.8C696.5,351.7,696.5,351.6,696.8,351.8 M684.5,412
				C683.7,411.7,683.9,411.6,684.5,412 M753.7,456c-1.2,1.3-2.4,2.6-3.6,3.8c-1.3,1.4,0.2,0.3-1.6,1.3c-2.9,1.6-5.7,3.2-8.6,4.7
				c-0.1,0-0.2,0-0.4,0.1c-1.1,0.2-2.1,0.4-3.2,0.7c-11.4,2.4-22.7,4.7-34.1,7.1c-0.4-5.4-0.8-10.8-1.1-16.2
				c-0.4-5.2-2.8-10.8-4.2-15.8c-1.5-5.4-3.5-9.8-6.1-14.8c-0.9-1.8-1.9-4.5-2.9-7.5c5.3,1.8,10.6,3.6,15.8,5.3
				c10.5,3.6,21.3,6.8,31.6,10.9l4.9,2c0.2,0.1,0.3,0.1,0.5,0.2l5.5,5.5c3.3,3.3,6.6,6.6,9.9,9.9C755.2,454.2,754.4,455.3,753.7,456
				 M781.2,374.6c-1,5-2.2,9.8-2.2,14.9c0,5.4-0.6,11.3,0.2,16.6c1,6.6,1.9,13.2,2.9,19.7c0.3,2.1,0.6,4.2,0.9,6.3
				c-4.2,2.9-7.7,7.6-11.2,11.1c-0.3,0.3-0.6,0.6-0.9,0.9c-1.1,0.6-2.3,1.2-3.4,1.8c-2.2,1.2-4.4,2.4-6.6,3.6
				c-3.7-3.7-7.4-7.4-11.1-11.1c-1.7-1.7-3.4-3.4-5.2-5.2c-1.6-1.6-4.9-2.3-6.9-3.1c-10.3-4.1-21-7.4-31.6-10.9
				c-6.4-2.2-12.8-4.3-19.3-6.5c-0.7-0.2-1.5-0.5-2.2-0.7c-1.2-1.3-2.5-2.6-3.7-3.9c6.6-8.4,13.1-16.9,19.7-25.3l12.1-15.6l2.1-2.7
				c1.6-2.1,0.4-5.9-0.9-8c-1.1-1.8-4.1-3.1-5.8-4.2c-2.8-1.9-5.6-3.8-8.4-5.7c-1.9-1.3-5.3-0.6-7.4-0.6c-1.8,0-2.5,1-3.4,2.2
				c-8.7,11-17.4,22-26.1,32.9c-2.3,2.8-4.5,5.7-6.8,8.5c-1.9-1.3-3.8-2.7-5.6-4c-7.2-5.2-14.5-10.3-21.7-15.5
				c32-30.5,64-61.1,96-91.6c2.3-2.2,4.6-4.4,6.9-6.6c2.1,1.2,5.2,1.8,7,2.5c3.2,1.2,6.9,1.3,10.2,1.9c14.3,2.3,28.6,4.6,42.9,6.9
				c2.1,0.3,3.9,0.6,5.9,1.4c2.7,1.1,5.5,2.1,8.2,3.2c0.2,0.1,0.4,0.2,0.6,0.2c0.9,0.7,1.7,1.4,2.6,2.1l3.6,3
				c0.3,0.3,2.2,2.1,1.3,0.9c1.1,1.6,2,3.1,3.1,4.7c2.4,3.4,5.1,6.8,7.1,10.2c-5.6,9.4-10.6,19-15.8,28.7c-0.2,0.4-1.3,2.1-0.3,1
				c-0.4,0.5-0.8,0.9-1.2,1.4c-2.3,2.5-4.7,5.1-7,7.6c-4.1,4.4-8.2,8.9-12.3,13.3c-1.5,1.6-2.2,4.4-3.1,6.4
				C783.4,369.5,781.7,372.2,781.2,374.6 M810.8,421.4c-4.1,0-8,0.2-12,1.5c-3.7,1.2-7.1,3.4-10.4,5.7c-0.6-4.3-1.2-8.6-1.9-12.9
				c-0.5-3.2-0.9-6.3-1.4-9.5c-0.1-0.6-0.2-1.3-0.3-1.9c0.2,1.7,0.1-1.6,0.1-2v-11V387c0-0.5,0-0.7,0-0.7c0-0.1,0.1-0.3,0.2-1
				c0.6-3,1.2-6,1.8-9.1c-0.3,1.3,0.6-1.3,0.8-1.8c0.9-2,1.8-3.9,2.7-5.9c0.6-1.2,1.1-2.5,1.7-3.7c0.1-0.1-0.5,0.5,0.4-0.4
				c2.1-2.3,4.2-4.6,6.3-6.8c4.5-4.8,8.9-9.7,13.4-14.5c3.3-3.6,5.3-9.5,7.6-13.8c2.4-4.5,4.8-8.9,7.5-13.3c1.1-1.8,2.2-3.7,3.3-5.5
				c2.9-4.1,5.8-8.1,8.7-12.2c3.5,2.1,7,4.1,10.5,6.2c2.1,1.2,4.2,2.5,6.3,3.7c0.1,0.1,0.3,0.1,0.3,0.2c0,0,0,0.1,0.1,0.2
				c1.1,1.3,2.2,2.6,3.2,3.8c5.3,6.3,11.1,12.3,16.8,18.3c-9.8,15.1-19.8,30-29.2,45.3c-3,4.9-6,9.9-9,14.8
				c-0.1,0.1-0.2,0.2-0.4,0.4c-1,0.9-2,1.7-2.9,2.6c-2.6,2.3-5.2,4.6-7.8,6.9C820.3,406.5,815.8,414,810.8,421.4 M990,268
				C989.8,268.2,989.6,268.2,990,268 M990.6,267.6c0.7-0.4,1.4-0.9,2.2-1.3c0.8-0.5,1.6-1,2.4-1.4c0.5-0.3,0.8-0.4,1.1-0.5
				c1.2,0.1,2.5,0.3,3.7,0.3c-0.1,5-0.4,10.2,0,15.2c-1-0.5-1.9-1.1-2.9-1.6c-0.4-0.2-2.1-1.4-1-0.4c-2.2-1.9-4.5-3.8-6.7-5.6
				C989.9,270.8,990.2,269.1,990.6,267.6 M970.3,307c5.4-9.8,10.8-19.6,16.2-29.4c1.8,1.5,3.6,3,5.4,4.5c2.6,2.2,6.2,3.6,9.2,5.3
				c2.6,12.2,5.3,24.4,7.9,36.6c1.3,6.1,2.6,12.2,3.9,18.3c0.2,1,0.4,2,0.6,3.1c-1.5,0.8-3,1.6-4.5,2.3l-11.1,5.6
				c-5.2-7.6-10.3-15.3-15.5-22.9c-4.2-6.3-10.4-11.5-15.8-16.9C967.9,311.3,969.1,309.2,970.3,307 M938,339.8
				C938.2,339.7,938.1,339.7,938,339.8 M929.6,351.9c8.5-5.1,18.3-10.3,23.9-18.6c3.3-4.9,6.6-9.7,9.7-14.6c2.4,2.5,4.8,4.9,7.2,7.4
				c1.8,1.8,3.6,3.7,5.3,5.5c0.3,0.3,1.3,1.6,0.4,0.3c0.3,0.5,0.7,1,1,1.4c5.1,7.5,10.2,15.1,15.3,22.6c-18.9,9.5-37.8,19-56.7,28.5
				c0,0-0.1,0.1-0.1,0.1c-5.7-8.6-11.6-17.1-17.3-25.6C922.1,356.5,925.8,354.2,929.6,351.9 M919,370.5c3.8,5.6,7.5,11.1,11.3,16.7
				c-0.2,0.1-0.5,0.2-0.7,0.4c-3.2,1.7-6.4,3.3-9.6,5c-0.1,0.1-0.3,0.2-0.4,0.2c-0.7-0.1-1.3-0.3-2-0.4c-0.2,0-0.3-0.1-0.4-0.1
				c-4.8-7.8-9.6-15.5-14.4-23.3c3.6-2.4,7.1-4.8,10.7-7.1C915.2,364.8,917,367.6,919,370.5 M904.8,346.1c1.8,3.7,3.7,7.1,5.6,10.5
				c-4.2,2.7-8.4,5.6-12.6,8.5c-0.7,0.2-1.4,0.7-1.8,1.3c-2.7,1.9-5.4,3.7-8.1,5.6c-2.6,1.8-5.6,3.3-7.7,5.8c-4,4.7-8.1,9.3-12.1,14
				l-15.3,17.7c-1.5,1.8-3,3.5-4.6,5.3c-0.3,0.4-0.6,0.7-0.9,1.1c0.8-1-1.5,0.8-2.1,1.2c-1.6,1-3.1,1.9-4.7,2.9
				c-0.5,0.3-1.1,0.6-1.6,1c0,0,0,0-0.1,0c-3.2,0.7-6.3,1.5-9.5,2.2c1.2-0.3-2.4-0.1-3-0.1h-2.5c-0.2,0-1.5-0.2-0.8,0
				c-1.7-0.4-3.5-0.9-5.3-1.2c2.1-3.1,4.2-6.2,6.4-9.2c0.7-1,1.3-1.9,2-2.9c0.3-0.5,0.6-0.7,0.7-0.8c1.8-1.5,3.5-3.1,5.3-4.6
				c2.6-2.3,5.2-4.5,7.7-6.8c1.1-1,2.7-2,3.5-3.3c3-4.8,5.9-9.7,8.8-14.5c9.7-15.9,20.2-31.4,30.3-47.1c4.1-2.2,8.1-4.5,12.2-6.7
				C898,332.6,901.4,339.3,904.8,346.1 M859.4,276.2c9.5,13.4,19.9,26.1,29.8,39.1c1.1,1.5,2,3.2,2.8,5.1c-3.7,2.1-7.4,4.1-11.2,6.2
				c-5.9-6.3-11.9-12.6-17.5-19.2c-5.2-6.2-13-9.9-20.2-13.9c0.5-0.6,1-1.1,1.5-1.7c2-2.3,4.1-4.5,6.1-6.8c1.8-2,3.7-3.8,5.5-5.7
				C857.3,278.4,858.4,277.3,859.4,276.2 M823.3,221l1.2,1.5c-0.9-1.1-0.2-0.3,0,0.1c1.1,1.7,2.2,3.4,3.2,5
				c8.1,12.5,16.1,25.1,24.2,37.6c1.3,2,2.6,4,4,6c-0.4,0.5-0.8,1-1.2,1.4c-2.6,2.6-5.1,5.3-7.7,7.9c-3.5,3.6-6.8,7.4-9.8,11.3
				c-0.7,0.4-1.3,1.1-1.5,1.9c-2.6,3.3-5.1,6.7-7.6,10.2c-5.2-7.8-10.4-16.1-18.6-20.9c-8.5-5-18.5-5.8-27.9-7.3
				c-13.2-2.1-26.4-4.2-39.5-6.4c-1.5-0.2-2.9-0.9-4.3-1.5c-0.4-0.2-0.8-0.3-1.2-0.5c23.4-22.3,46.8-44.5,70.1-66.9
				c1,1.1,2,2.2,3,3.4C814.2,209.6,818.8,215.3,823.3,221 M789.3,114.2c7.4,3.4,15,6.3,22.1,10.2c13.9,7.7,27.8,15.4,41.7,23.1
				c-15.3,14.7-30.6,29.5-45.9,44.2c0,0-0.1,0.1-0.1,0.1c-2.8-2.4-6.3-4.5-9-6.6c-3.2-2.5-6.5-4.7-10.1-6.6
				c-8.5-4.4-17-8.9-25.5-13.3C771.3,148.2,780.3,131.2,789.3,114.2 M757.2,169.3c16.2,8.5,32.4,15.1,45.2,27
				c-23.5,22.6-47.1,45-70.7,67.4c-0.1-0.1-0.2-0.2-0.3-0.3c-0.1-0.1-0.2-0.2-0.2-0.2c0-0.2,0-0.4-0.1-0.8c-0.3-1.8-0.6-3.6-0.9-5.4
				l-13-80.2c-1.2-7.5-2.9-15.1-4.7-22.6C727.4,159.2,742.3,164.2,757.2,169.3 M711.2,178c0.9,4.4,1.7,8.7,2.4,13.1
				c4,24.7,8,49.5,12,74.2c0.1,0.9,0.8,1.8,1.6,2.7c-3,2.8-5.9,5.6-8.9,8.5c-31.5,30.1-63,60.1-94.6,90.2
				c-8.4-6.3-16.8-12.6-25.2-18.8c2.5-12.5,5.4-24.9,6.9-37.6c2.1-16.9,4.1-33.9,6.2-50.8c0.5-3.8-5.5-3.8-6,0
				c-2,16.7-4.1,33.5-6.1,50.2c-0.3,2.3-0.6,4.6-0.8,6.9c0.2-1.6-0.1,0.5-0.2,1c-0.4,2-0.8,4.1-1.2,6.1c-1.3,6.8-2.7,13.5-4,20.3
				c-6-4.1-12.5-7.4-19.7-8.9c-8.8-1.9-17.7-3.5-26.5-5.7c0.1-3.7,0.8-7.3,1.3-10.9c1-7.5,2-15,3-22.5c0.1-1,0.3-2,0.4-2.9
				c0.2-1.4,0,0,0.1-0.4c0.9-3.4,1.9-6.9,2.8-10.3c1.3-4.7,2.6-9.3,3.9-13.9c1.5-5.3,2.9-10.5,4.4-15.8c1.4-5,3.5-10.2,4.1-15.4
				c1.4-10.3,2-19.7,2-30.1v-28.1v-6.5c2.3-0.3,4.7-0.6,7-1c1.2-0.2,2.5-0.3,3.7-0.5c-1.6,0.2,0.5,0.1,0.9,0l20.8-0.6
				c10.6-0.3,21.1-0.4,31.6-0.4c11.3,0,22.4,0.3,33.7,1c3.3,0.2,6.5,0.4,9.8,0.6l2,0.1c-1.7-0.1,0.7,0.2,1.2,0.3
				c7.1,1.6,14.2,3.1,21.3,4.7C704.6,177.5,707.7,177.9,711.2,178 M649.9,136.9c4.3,1.1,8.7,2.3,13,3.4c14.1,3.8,28.6,7,42.6,11.5
				c1.6,6.7,3.1,13.3,4.5,20c-9.3-0.7-19.8-3.6-30-5.8c-4.6-1-9.6-0.8-14.2-1.1c-5-0.3-10.1-0.9-15.1-0.9c-4,0-8,0-11.9,0
				C642.5,155,646.2,146,649.9,136.9 M574.1,118.3c1.8,0.4,3.6,0.7,5.2,1.1c6.7,1.7,13.4,3.3,20.1,5c14.9,3.7,29.8,7.3,44.6,11
				c-3.9,9.5-7.9,19.1-11.8,28.6c-17.4,0.1-34.7,0.4-52.1,0.9c-4.1,0.1-8.2,0.9-12.3,1.5c-0.5-1.1-1-2.2-1.4-3.3
				c-0.2-0.4-0.5-0.9-0.5-1.3v0c1,1.7,0.1-0.2,0.1-1.2c0-1,0-2-0.1-2.9c-0.1-3.3-0.2-6.7-0.3-10c-0.2-6.5-0.4-13-0.5-19.5
				c0.4-0.8,0.5-1.7,0.1-2.7c-0.1-0.2-0.2-0.4-0.3-0.6c-0.1-0.4-0.3-0.8-0.5-1.1c-0.4-0.8-0.7-1.6-1.1-2.4
				C567,120.4,570.6,119.3,574.1,118.3 M558,111.2l7.3,3.4c-1.5,0.4-3,0.9-4.5,1.3C559.9,114.4,559,112.8,558,111.2 M563,170.1
				C562.9,169.7,563,169.7,563,170.1 M489.4,154.3l1.3,0.2c0,0,0.1,0,0.1,0c12.9,2.3,25.8,4.6,38.7,7c4.5,0.8,9.1,1.6,13.6,2.4
				c5.4,1,11.6,0.1,17.1,0.1h0.1c0.1,0.3,0.2,0.7,0.3,1c0.7,1.5,1.3,3,2,4.5c0.1,0.3,0.2,0.6,0.4,0.8v15.4V222c0,2.5-0.7,5.2-1,7.7
				c-0.2,1.8-0.5,3.5-0.7,5.3c-0.1,0.6-0.2,1.2-0.2,1.7c0,0,0,0,0,0c0,0,0,0-0.1,0.2c-1.4,4.9-2.8,9.8-4.1,14.7
				c-3.1,11.1-6.2,22.2-9.2,33.4c-3.2,11.7-4.1,24-5.7,36c-0.3,2.3-0.5,4.6-0.7,6.9c-0.1,0-0.2-0.1-0.3-0.1
				c-7-1.9-13.9-3.8-20.9-5.7c-0.6-0.2-1.3-0.4-1.9-0.5c1.4,0.4,0,0-0.4-0.2c-2.6-1.2-5.2-2.3-7.8-3.5c-8.6-3.8-17.1-7.5-25.7-11.1
				c0.3-1.9,0.6-3.7,0.9-5.6c3.1-19.1,3.3-38.7,5.5-57.9c1.1-9.7,2.2-19.4,3.3-29.1c0.7-6.2-0.1-12.4-0.4-18.6
				c-0.4-7.4,0.1-15.3-1.4-22.6c-1.3-6.5-2.9-12.6-4.8-18.8C488,154.1,488.7,154.2,489.4,154.3 M430.5,147.3
				c10.1,1.2,20.3,2.4,30.4,3.6c6.6,0.8,13.3,1.6,19.9,2.3c1.4,4.1,3,8.3,3.9,12.6c0.6,3.2,1.3,6.3,1.9,9.5c0,0.1,0,0.2,0,0.5
				c0.1,1.2,0.1,2.4,0.2,3.6c0.4,7.5,0.7,15,1.1,22.6c0.2,3.5,0.7,7.1,0.3,10.6c-2.7,24.2-5.1,48.3-7.2,72.5
				c-0.3,3.2-0.5,6.4-0.8,9.5c0,0.3,0,0.5,0,0.6c-0.2,1-0.3,2.1-0.5,3.1l-1,6c-12.1-5-24.2-10-36.4-14.9c-4.5-1.8-9-3.6-13.5-5.4
				C429.3,238.5,429.9,192.9,430.5,147.3 M366.8,255.4c12.1,7,24.1,14,36.2,21c6.8,4,13.7,8.9,21,12.1c0.2,0.1,0.4,0.2,0.6,0.3
				c0.4,0.2,0.8,0.4,1.2,0.5c12.4,5,24.9,10,37.3,15c4.8,1.9,9.7,3.9,14.5,5.8l-2.9,18.1c-2.3,13.8-4.1,27.7-6,41.5
				c-0.5,3.8,5.3,5.4,5.8,1.6c2.7-19.7,5.7-39.3,8.9-58.8c1.4,0.6,2.7,1.2,4.1,1.8c7,3.1,14.1,6.3,21.1,9.4c3.3,1.5,6.5,3.1,10,4.1
				c7.5,2.1,15,4.4,22.5,6.2c-0.2,6.5,0,13,0,19.5c0,6.8,1.5,12.5,4.6,18.4c12.8,24.8,25.6,49.5,38.4,74.3
				c6.2,11.9,12.3,23.9,18.5,35.8c0.9,1.7,2,4.7,3.6,7.5c-1.5,2.4-3,4.8-4.5,7.1c-0.6,0.3-1.3,0.6-1.9,1c-1,0.5-2.1,1-3.1,1.6
				c-0.2,0.1-0.3,0.2-0.4,0.2c-5.9,0.7-11.8,1.6-17.7,2c-6.5,0.4-13,0.9-19.4,1.4c-0.6-0.1-1.2,0-1.7,0.1c-6.5,0.6-13,1.2-19.6,2
				c-1.5,0.2-3.2,1.2-3,3c1.3,11.4,2.7,22.9,4,34.3c-5.4,0.3-10.7,0.7-16.1,1c-2.9,0.2-5.7,0.4-8.6,0.5c-0.5,0-2.1-0.1-0.6,0.2
				l-2.5-0.5c-10.1-1.9-20.1-4.2-30.3-5.1c-14.1-1.3-28.2-2.6-42.3-3.9c-4-0.4-5.2-1.1-9.9-2.5c-6.3-1.9-12.6-3.8-18.9-5.7
				c-17.6-5.3-34.6-12.3-51.7-18.8c0.3-1.8,0.7-3.6,1-5.4c1.1-6.1,0.6-12.5,0.7-18.7c0.1-5.8,0.1-11.7,0.2-17.5c0.2-0.6,0.2-1.4,0-2
				c0.1-7.8,0.2-15.6,0.3-23.5c0.2-13,0.3-26,0.5-39c0.5-0.9,0.5-2.1,0-3.1c0.1-11.4,0.3-22.9,0.4-34.3c6.3,1.3,12.6,1.9,19.2,2.6
				c24.4,2.5,48.5,4.5,72.9,5.8c2.4,0.1,4.8,0.3,7.2,0.4c3.9,0.2,3.8-5.8,0-6c-21.3-1.2-42.4-2.3-63.6-4.5
				c-7.8-0.8-15.6-1.6-23.4-2.4c-2.5-0.3-5.1-0.5-7.6-0.8c-1-0.1-3.2-0.6-2.1-0.2l-2.6-0.8c0-6.5,0-13,0-19.5
				c0-10-0.9-20.5,0.1-30.4C363,290.7,364.9,273,366.8,255.4 M603.3,527.7c-8.7,2.9-17.4,6-26.5,7.8c-3.9,0.8-7.9,1.5-11.8,2.3
				c-1-9.7-2-19.5-3-29.2c5.7-0.5,11.4-0.9,17.2-1.2c5.9-0.4,12.9-0.6,18.6-2.1c0.5-0.1,1.1-0.3,1.8-0.6
				C600.8,512.3,602,520,603.3,527.7 M601.5,496.8C601,497.5,601,497.2,601.5,496.8 M559.1,539c-1.6,0.3-3.3,0.6-4.9,1
				c-2.9,0.6-5.7,1.1-8.6,1.7c-0.3,0.1-0.6,0.1-1,0.2c-1.2-10.4-2.4-20.8-3.6-31.2c5-0.6,10-1.1,15.1-1.5
				C557.1,519.1,558.1,529,559.1,539 M347.5,240.5c4.5,3.7,8.9,7.8,13.7,11.3c-1.2,11.1-2.4,22.2-3.6,33.2
				c-0.4,3.8-0.9,7.6-1.4,11.4c-29.4-5.9-58.8-11.7-88.2-17.6c16.4-21.2,32.9-42.4,49.3-63.6C327.3,223.8,337.4,232.1,347.5,240.5
				 M355,356.5c-9.7-2.9-19.4-5.8-29.1-8.7c-1.8-0.5-3.6-1.1-5.4-1.6c-3.7-1.1-5.3,4.7-1.6,5.8c6.5,1.9,12.9,3.9,19.4,5.8
				c-2,10.4-4.5,20.4-7.4,30.6c-2.3-1.3-4.7-2.6-7-3.9c-10.4-5.8-21.1-10.2-32.1-14.8l-5-5.7c-1.1-1.2-3.1-1.1-4.2,0
				c-1.2,1.2-1.1,3,0,4.2c1.4,1.5,2.7,3.1,4.1,4.6c-2.6,8.7-5.3,17.4-7.9,26.1c-1.1,3.8-2.3,7.5-3.4,11.3c0,0,0,0,0,0
				c-0.9,0.9-1.7,1.9-2.6,2.8l-2.5,2.7c-10.2-16.6-20.4-33.1-30.5-49.7c-5.9-9.7-11.8-19.4-17.7-29.1c0.9-0.3,1.6-0.8,2.1-1.3
				c1-1.3,2-2.6,3.1-3.9c6.7-8.7,13.5-17.4,20.2-26.1c3.7-4.8,7.4-9.6,11.1-14.4c32.2,6.1,64.3,12.2,96.5,18.3
				c0,0.9-0.1,1.8-0.1,2.6C355,326.9,355.1,341.7,355,356.5 M313.8,453.6c-0.1-0.1-0.2-0.1-0.3-0.3c-0.7-0.6-1.5-1.3-2.2-1.9
				c-4.2-3.6-8.5-7.2-12.7-10.7c-0.5-0.4-1-0.9-1.5-1.3c0,0,0-0.1-0.1-0.1l-2.4-4.8l-12.8-25.1c0.7-2.4,1.5-4.9,2.2-7.3
				c2.6-8.7,5.3-17.4,7.9-26.1c5.4,2.3,10.9,4.6,16.3,6.9c1.2,0.5,2.4,1,3.5,1.5c0,0,0,0,0,0c0,0,0.1,0.1,0.8,0.5
				c3.6,2,7.3,4.1,10.9,6.1c2.4,1.3,4.8,2.7,7.3,3.9c0.4,0.3,0.8,0.5,1.3,0.7c7.1,3.6,14.7,6.5,22.5,7.2c-0.2,18.3-0.4,36.6-0.7,55
				c0,1.4,0,2.8,0,4.2h-24c-0.6-0.3-1.1-0.6-1.7-0.9c-2.7-1.4-5.5-2.9-8.2-4.3L313.8,453.6C313.7,453.5,313.7,453.6,313.8,453.6
				 M353.2,397c1.2,0-1.5-0.6-2-0.8l-12.1-4.1c-1-0.3-1.9-0.6-2.9-1c2.9-10.6,5.6-21,7.7-31.7c3.6,1.1,7.1,2.1,10.7,3.2
				c0.1,0,0.2,0,0.2,0.1c0,2.4,0,4.7-0.1,7.1c-0.1,9.1-0.2,18.1-0.3,27.2H353.2z M262.7,285.8c0.4-0.5,0.8-1.1,1.3-1.6
				c30.5,6.1,61.1,12.2,91.6,18.2c0,0.3-0.1,0.7-0.1,1C324.5,297.5,293.6,291.7,262.7,285.8 M296.1,196.5c5.5,5.1,11.1,10.1,16.8,15
				c-29.4,37.8-58.7,75.7-88.1,113.5c-1.4,1.7-2.7,3.5-4,5.2c-0.2,0.3-0.3,0.4-0.4,0.6c-0.3,0.1-0.6,0.2-0.9,0.3l-1.7-5.8l-6.2-20.8
				c-3.9-13.2-7.9-26.4-11.8-39.5c-0.3-0.9-0.5-1.7-0.8-2.6c0.4,1.4,0.1-0.5,0.1-0.8v-2.5c0.7-1,1.3-1.9,2-2.9c0.3-0.5,0.7-1,1-1.5
				c0,0,0,0,0,0c0.5-0.6,1.1-1.1,1.6-1.7c2.4-2.5,4.8-5,7.2-7.6c5.8-6.1,11.7-12,17.1-18.4c7.1,6.1,14.1,12.2,21.2,18.3
				c3.1,2.7,6.2,5.3,9.2,8c0,0.1,0.1,0.2,0.1,0.4c0.4,1.6,0.9,3.2,1.3,4.8c0.6,2.3,1.3,4.6,1.9,7c1,3.7,6.8,2.1,5.8-1.6
				c-1.1-4.2-1.6-9.9-3.8-13.7c-1.8-3.1-6.3-5.6-8.9-7.9c-7.6-6.6-15.3-13.2-22.9-19.9c8.6-10.5,17.1-21,25.7-31.6
				c4.6-5.7,9.2-11.3,13.8-17C279.5,181.3,287.8,188.9,296.1,196.5 M202,254.5C201.7,254.9,201.8,254.7,202,254.5 M258.2,252.9
				C258.1,252.6,258.1,252.5,258.2,252.9 M153.9,269.1c9.7-15.5,19.4-31.1,29.1-46.6c16.6-26.4,33.1-52.8,49.7-79.1
				c3.1,2.3,6.1,4.7,9.2,7c8.2,6.4,17.1,12.4,24.9,19.2c-14.5,17.8-29.1,35.7-43.6,53.5c-6.4,7.9-14,15-21,22.3
				c-3.4,3.5-6,6.8-8.8,10.9c-1.7,2.6-0.5,7.2,0.4,10.1s1.7,5.7,2.6,8.6c-17.8,3.7-35.7,7.5-53.5,11.2
				C146.7,280.5,150.3,274.9,153.9,269.1 M119.6,320.6c6.3-9.1,12.6-18.1,18.7-27.3c20-4.2,39.9-8.4,59.9-12.5
				c5.2,17.3,10.3,34.6,15.5,51.8c-5.7,1.7-11.5,3.3-17.2,5c-17.6,5.1-35.3,10.2-52.9,15.3C135.6,342.1,127.6,331.3,119.6,320.6
				 M229.9,468.9c-1.2-0.9-2.5-1.8-3.7-2.7c-0.5-0.3-0.9-0.6-1.4-1c-1-1.5-2-3.1-2.9-4.6c-1.2-1.8-2.4-3.5-3.6-5.3
				c-6.8-9.3-13.6-18.7-20.5-28c-16.5-22.6-32.9-45.2-49.4-67.7c-0.4-0.5-0.8-1.1-1.2-1.6c22.8-6.6,45.5-13.1,68.3-19.7
				c0,0,0,0,0.1,0c1.6,3.1,4.1,6.2,5.8,9c4.1,6.7,8.2,13.5,12.3,20.2c4.5,7.3,8.9,14.7,13.4,22c2.4,3.9,4.7,7.8,7.1,11.7
				c-3.8-1.3-7.6-2.5-11.4-3.8c-3.7-1.2-5.2,4.6-1.6,5.8c5.9,2,11.8,3.9,17.8,5.9c2.3,3.8,4.6,7.5,7,11.3
				C254,436.5,242,452.7,229.9,468.9 M235,472.1c12.3-16.5,24.6-33.1,36.9-49.6c1.5-1.6,2.9-3.1,4.4-4.7c0.5-0.6,1.3-1.2,2-1.9
				c3.8,7.4,7.6,14.9,11.4,22.3c1.2,2.4,2.1,4.6,4.2,6.4c4.6,3.9,9.1,7.7,13.7,11.6c2.6,2.2,5.3,3.7,8.4,5.3
				c2.8,1.5,5.6,2.9,8.4,4.4c1.3,0.7,3.1,2.1,4.7,2.1h24.7c-0.1,8.5-0.2,17-0.3,25.5c0,2,0,3.9-0.1,5.9c0-1.7-0.3,1.6-0.4,2.1
				l-1.1,5.6c-0.7,3.8-0.6,3.4-2.6,6.9c-0.6,1-1.1,2-1.7,3c-0.1,0.1-0.2,0.1-0.4,0.2l-2.4,1c-1,0.4-2,0.9-3,1.3
				c-0.9-0.2-1.7-0.4-2.6-0.7c-5-1.3-9.7-2.7-14.5-4.5c-3.6-1.4-7.2-2.7-10.8-4.1c-1.4-0.5-2.9-1.1-4.3-1.6c-0.4-0.1-3-1.3-1.4-0.5
				c-5-2.4-10-4.9-15-7.3C273.8,491.2,253.6,483.2,235,472.1 M342.5,519.7C342.7,519.7,342.8,519.7,342.5,519.7 M276.3,499.2
				c10,4.9,19.9,10.7,30.3,14.7c11.3,4.3,22.2,8.5,33.8,11.5c2.4,0.6,4.3-0.6,6.5-1.6c2.8-1.2,4.7-1.8,6.2-4.5
				c1-1.7,2.6-3.8,3.4-5.8c20.1,7.6,40.1,15.3,60.7,21.5c5,1.5,9.9,3,14.9,4.5c3.7,1.1,7.6,1.2,11.4,1.5c13.7,1.3,27.3,2.5,41,3.8
				c0.5,0,0.7,0.1,0.8,0.1c0.1,0,0.3,0.1,1.1,0.2c3.4,0.6,6.7,1.2,10.1,1.9l10.8,2c1.6,0.3,3.7,1.1,5.4,1c5.9-0.4,11.7-0.7,17.6-1.1
				c4.8-0.3,9.9-0.1,14.6-1c12.3-2.4,24.7-4.8,37-7.3c8.9-1.8,17.3-6.5,26.2-8.1c20.2-3.6,40.4-7.2,60.6-10.8
				c3.9,19,7.8,38.1,11.7,57.1c-3.9,1.8-7.8,3.6-11.7,5.4c-5.4-1.8-10.9-3.2-16.1-4.1c-10.6-2-21-2.3-31.7-0.4
				c-8,1.5-15.8,3.1-23.7,4.9c-0.2,0-0.4,0.1-0.6,0.1c-2.2,0.5-4.4,1.1-6.6,1.6c-10.6,2.7-21.4,6.4-32.3,8.1
				c-11.9,1.8-23.9,3.7-35.8,5.5c1.7-0.3-2.2-0.2-2.8-0.2c-3.3-0.1-6.5-0.2-9.8-0.3c-7.8-0.2-15.6-0.5-23.5-0.7l-7.5-0.2
				c-0.5,0-1,0-1.6,0c1.5,0-1-0.2-1.6-0.3c-5-0.9-10-1.7-15-2.7c-9.9-2-19.9-4-29.8-6c-15.5-3.1-31-6.3-46.5-9.4
				c-6.5-1.3-13.4-2.1-19.7-4.1c-11.8-3.7-23.6-7.5-35.4-11.2c-0.5-0.3-1.1-0.6-1.7-0.5c-12.4-3.9-24.8-7.9-37.2-11.8
				c-10.3-3.3-20.7-6.5-31-9.8C264.6,528.3,270.5,513.7,276.3,499.2 M236,585.6c-7.4-0.7-14.9-1.5-22.3-2.2l-8.7-0.9
				c-0.6-0.1-1.3-0.1-1.9-0.2c1.2,0.1,0.1-0.1-0.6-0.3c-6.7-2.1-13.4-4.2-20.2-6.4c-2.9-0.9-5.7-1.8-8.6-2.7
				c-0.6-0.2-1.1-0.3-1.7-0.5c1.4,0.4,0.1,0-0.3-0.3c-11.8-7-23.7-14-35.5-21c-0.1,0-0.1-0.1-0.2-0.1c18.8-0.5,37.7-1,56.5-1.4
				c15-0.4,29.9-0.8,44.9-1.2c4.7-0.1,9.3-0.2,14-0.4c1.1,0,2.2-0.1,3.4-0.1c0.2,0,0.3,0,0.4,0c22.7,7.2,45.3,14.4,68,21.6
				c-0.5,1.2-1.1,2.4-1.6,3.7l-2.2,4.9c-0.2,0.5-0.5,1.1-0.7,1.6c0,0,0,0.1,0,0.1c-2.5,1.6-5,3.3-7.5,4.9c0,0-0.1,0.1-0.1,0.1
				c-0.4,0.1-0.8,0.2-1.2,0.4c-1.9,0.6-3.9,1.1-5.8,1.7c-1.7,0.5-3.4,1-5.2,1.5c-0.4,0.1-3.2,0.7-1.6,0.6c-2.2,0.1-4.4,0.3-6.6,0.4
				c-7.2,0.5-14.3,1-21.5,1.4c-1.5,0.1-3,0.2-4.6,0.3c-0.1,0-0.1-0.1-0.2-0.1c-4.9-1.6-9.7-3.5-14.9-4.1
				C245.1,586.6,240.5,586.1,236,585.6 M132.9,613.1C132.8,613.4,132.8,613.4,132.9,613.1 M176,626.3
				C176.7,626.4,176.5,626.5,176,626.3"/>
			<path class="st1" d="M105.9,621.6c-3.3-3.1-7.4-5.3-11.2-7.8c-5-3.2-9.9-6.5-14.9-9.7c-4.7-3.1-10.4-5.1-15.4-7.5
				c-2.6-1.3-6.1-1.3-8.9-1.7c-7.2-1.2-14.3-2.3-21.5-3.5c-11.4-1.8-22.7-3.7-34.1-5.5v6c20.6,3.3,41.1,6.7,61.7,10
				c-0.2,0-0.8-0.4,0.4,0.2c1.3,0.6,2.6,1.3,3.9,1.9c3.3,1.6,6.6,3.2,9.9,4.8c4.4,2.1,8.4,5.3,12.5,8c3,2,6.1,4,9.1,6
				c0.9,0.6,1.8,1.2,2.7,1.8c0.1,0.1,0.2,0.1,0.3,0.2c0.1,0.1,0.2,0.2,0.4,0.4c2.8,2.6,5.7,5.3,8.5,7.9h8.8
				C114.1,629.2,110,625.4,105.9,621.6"/>
			<path class="st1" d="M1019.6,562c16.6,18.4,34,36.3,49.5,55.7c-0.3,1.4-0.6,2.8-1,4.1c-0.3,1.2-1.2,2.5,0.3,0.7
				c-0.5,0.6-1,1.3-1.5,1.9c-2.3,2.8-4.5,5.7-6.8,8.5h7.6c1.5-1.9,3-3.8,4.5-5.7c1.8-2.2,4.2-9.2,2.7-11.8
				c-3.1-5.3-8.4-10.2-12.5-14.8l-38.1-42.4c5.1-4.2,9.8-9.1,14.7-13.4c11.8-10.6,23.5-21.1,35.3-31.7c3.6-3.2,7.2-6.5,10.9-9.7
				c34,35.2,67.9,70.4,101.9,105.6c4.1,4.3,8.3,8.6,12.4,12.8l-11.5,11h8.7c13.5-12.9,26.9-25.7,40.4-38.6v-8.3
				c-11.1,10.6-22.1,21.1-33.2,31.7c-27.2-28.2-54.3-56.3-81.5-84.5c7.1-6.7,14.2-13.3,21.5-19.7c2.1-1.9,4.3-3.8,6.4-5.7
				c-0.8,0.7,0.4-0.1,1.1-0.5l12.6-6.4c21.5-10.9,43-21.9,64.5-32.8c3.5-1.8,0.4-6.9-3-5.2c-15.6,8-31.3,15.9-46.9,23.9
				c-4.9-10-9.8-20-14.8-30c5.1-2.6,10.3-5.1,15.4-7.5c6.8-3.2,13.6-6.4,20.4-9.6c4.2-2,6.8-3.9,10.4-7.1c3.9-3.5,6.2-9,8.9-13.5
				c1-1.7,1.1-4.4,1.6-6.3c0.8-3.5,1.5-7,2.3-10.5c0.1-0.1,0.1-0.1,0.2-0.2c1.1-1.2,2.3-2.4,3.4-3.7c0-0.1,0.1-0.1,0.1-0.1
				c0.3-0.1,0.6-0.3,0.9-0.4c1.3-0.6,2.5-1.3,3.8-1.9l5.8-2.9v-6.7l-10.3,5.1c-3.4,1.7-8.7,4.8-9.6,8.8l-2,9
				c-0.4,1.7-0.8,3.4-1.1,5.1c-0.2,1.1-0.7,2.4-0.4,1.8c-3.5,5.8-5.8,10.3-9.9,13.9c-0.6,0.6-1.3,1.2-1.9,1.7
				c-0.4,0.3-1.4,0.8-0.3,0.3c-0.4,0.2-0.7,0.4-1.1,0.5c-2.3,1.1-4.7,2.2-7,3.3l-21.4,10.1c-4.3,2-8.5,4-12.6,6.1
				c-0.5,0.1-0.9,0.3-1.3,0.6c-3,1.5-5.9,3-8.9,4.6c-12.4,6.7-24.9,13.4-37.3,20.1c-9.1,4.9-17.5,11.8-26,17.7
				c-6.3,4.4-11.8,10.1-17.5,15.3c-11.8,10.6-23.6,21.2-35.3,31.7c-4.1,3.7-8.2,7.4-12.3,11.1c-0.8,0.7-1.6,1.5-2.5,2.2
				c0,0,0.7-0.5-0.3,0.2c-7.3,5.4-14.6,10.8-21.9,16.2c-23,17-46,34.1-69,51.1c-5.7-7.4-11.4-14.7-17.1-22.1
				c-2.4-3.1-6.6,1.2-4.2,4.2c5.5,7.1,11,14.2,16.5,21.4c-2.8,2.1-5.6,4.1-8.3,6.2h10C955.7,609.3,987.7,585.7,1019.6,562
				 M1091.5,498.7c8.4-5.8,16.5-12.2,25.5-17c13.8-7.4,27.5-14.9,41.5-22l14.8,30c-4.3,2.2-8.6,4.4-12.9,6.6l-12,6.1
				c-3.1,1.6-5.4,4.2-8,6.4c-7.5,6.7-14.9,13.5-22.2,20.3c-5.4-5.6-10.8-11.2-16.2-16.8c-4-4.2-8-8.3-12-12.5
				C1090.5,499.4,1091,499,1091.5,498.7"/>
			<path class="st8" d="M20.4,227L20.4,227c-0.1,0.1-0.2,0.1-0.2,0.2C20.3,227.1,20.4,227,20.4,227"/>
			<path class="st8" d="M1156.3,256.1c1.8-1.6,3.5-3.2,5.3-4.8c0.1-0.1,0.1-0.1,0.2-0.2c25.1-2.7,50.2-5.4,75.3-8v-18.8
				c-35.2,2.4-68.6,2.4-104.3,5.5c-1.4-1.6-3.9-4.2-5.4-5.7c-9.9-9.5-12.3-11.8-23.3-20c-6.1-4.6-20.9-11.6-27.4-15.5l-83.7-50.4
				c-23.7-14.3-47.5-28.6-71.2-42.9c-7.3-4.4-15.8-7.2-23.7-10.7c-11.8-5.2-23.6-10.9-35.6-15.6l-39.8-15.5
				c-11.8-4.6-24.7-7.3-36.9-10.9c-0.4-0.1-0.8-0.2-1.2-0.3c-4.2-2.2-8.9-5.7-13.4-6.6c-5.8-1.2-11.7-2.5-17.5-3.7
				c-11.2-2.4-22.3-4.3-33.7-5.9c-9.1-1.3-18.3-2.8-27.5-2.9C691.6,15.4,690.8,7,690,0h-17.7c0.4,7,0.8,15.2,1.2,23h-4.4
				c-4.7,0-9.7-0.7-14.3,0.2l-38.9,7c-4.8,0.9-9.6,1.7-14.4,2.6c-5.3,0.9-10.9,4.3-15.9,6.3c-7.8,1-15.6,1.9-23.4,2.9
				C545.1,43.9,528,46,511,48.1c-3.7,0.5-7.5,0.9-11.2,1.4c-5.2,0.6-10.8,4.5-15.5,6.7c-3.7,1.7-7.4,3.4-11.1,5.1
				c-0.9,0.4-1.8,0.8-2.7,1.3c1.8-0.8-1.2,0.1-2.2,0.3c-3.9,0.9-7.7,1.7-11.6,2.6c-0.3,0.1-0.5,0.1-0.5,0.1
				c-1.2,0.1-2.5,0.3-3.7,0.4c-12.3,1.4-25.3,1.8-37.3,4.6c-15.7,3.8-31.4,7.5-47.1,11.3l-6.5,1.6c-0.1,0-0.2,0.1-0.3,0.1
				c-0.2,0-0.4,0-0.7,0.1c-5.6,0.5-11.2,0.9-16.8,1.4c-27.3,2.3-54.7,4.3-82,7c-13.5,1.4-27,2.7-40.6,3.8
				c-5.6,0.5-12.1,0.1-17.4,2.1c-4.3,1.6-9.5,2.8-13.5,5.2c-22.3-14.7-44.5-29.4-66.8-44.1c-1.7-1.1-3.5-2.3-5.2-3.4
				c-0.2-0.2-0.4-0.3-0.6-0.4c-2.3-3.1-4.5-6.2-6.8-9.3c-1.2-1.7-2.4-3.3-3.6-5c-0.5-0.7-2.2-3.7-1.5-1.5C101.8,26.3,97.7,13,93.7,0
				h-9.4c3.5,11,7,22.7,10.5,34.1c1.3,4.2,2.2,7.9,4.8,11.5c2.5,3.5,5,6.9,7.5,10.3c1.5,2,3.1,5.1,5.2,6.5
				c23.2,15.3,46.3,30.6,69.5,45.9c-17.6,11-35.1,22-52.7,33c-30.4,19-60.8,38-91.2,57c-8.2,5.2-16.5,10.3-24.7,15.5
				c-0.4,0.3-0.9,0.6-1.3,0.8c-1.9,0.3-3.9,0.5-5.8,0.8c-1.6,0.2-3-0.1-5-0.3v9.1c3,0.2,6.6,0.5,9.7,0.1C9,226.2,7.6,228,5.9,230
				H1.8c-0.1-0.1-0.8-0.3-0.8-0.4v9.4c3,0.2,6.8,0.7,9.1-0.7c3-1.7,5.4-5.8,7.6-8.3c0.8-1,1.7-1.9,2.6-2.9c-0.4,0.4-0.6,0.3-0.2,0.1
				c0.1-0.1,0.2-0.1,0.3-0.2c0,0,0,0,0.1-0.1c0.6-0.4,1.2-0.8,1.8-1.1c3.3-2.1,6.6-4.3,9.9-6.4c27.8-18,55.6-36,83.4-54.1
				c26.4-17.1,52.9-34.3,79.3-51.4c1.4-0.9,2.2-2.4,2.2-3.8c3.1-1.2,6.1-2.3,9.2-3.5c1.1-0.4,2.8-0.8,1.1-0.6
				c1.2-0.1,2.5-0.2,3.7-0.3c8.2-0.7,16.5-1.4,24.7-2c12.2-1,24.4-2.4,36.7-3.6c27.7-2.8,55.6-4.7,83.4-7c1.3-0.1,2.6-0.3,3.9-0.4
				c0.6,0.3,1.2,0.4,2,0.4c24-1.1,48.1-2.3,72.1-3.4c11.7-0.6,23.4-1.1,35.1-1.7c2.6-0.1,5,0.2,7.6,0.5c3.7,0.4,7.3,0.9,11,1.3
				c0.8,0.1,1.6,0.2,2.4,0.3c0.1,0,0.2,0.1,0.6,0.2c13,4,26,8,39,12c3.6,1.1,7.4,2.9,11.2,2.9h5.3h0.9c-0.1,0,0.4,0.1,0.9,0.2
				c2.5,1,5.4,2.8,8.2,2.8c4.6,0,10.4,1,14.7-0.8c3.3-1.4,6.7-2.9,10-4.3c13.9-6,27.7-12,41.6-18c11.2-4.9,22.4-9.7,33.6-14.6
				c0.1-0.1,0.3-0.1,0.4-0.2c0.2,0,0.6-0.1,1-0.1h1.5c0,0,0,0,0,0c0.9,0.5,1.9,1,2.8,1.5c0.4,0.3,0.8,0.5,1.2,0.6
				c5.1,2.6,10.1,3.8,15.8,3.8c5.7,0,11-1.9,16-4.3c1.4-0.7,2.8-1.3,4.1-2.1c0.6-0.2,1.1-0.5,1.6-1c0.3-0.2,0.5-0.4,0.8-0.6
				c1.3-1.1,2.6-2.2,3.9-3.3c0.3-0.2,1.7-1.3,0.1-0.1c0.7-0.5,1.5-1,2.2-1.6c2.2-1.6,4.5-3,6.5-4.8c1.3-1.2,2.6-2.3,3.9-3.5
				c0.2-0.2,0.8-0.6,0.8-0.6c0.5-0.3,1-0.6,1.4-0.8c1.2-0.7,2.4-1.4,3.6-2.1h10.4c4.3,0,9.6,0.9,13.9-0.2c4-1,7.9-2,11.9-3
				c7.1,1,14.2,2,21.2,2.9c0.1,0,0.2,0,0.3,0.1c0.3,0.1,0.6,0.1,0.8,0.1c4.8,0.9,9.6,2.9,14.2,4.2c11.8,3.5,23.3,6.9,34.8,11.4
				c8.1,3.2,16.2,6.3,24.2,9.5c0.7,0.3,6,2.4,3.5,1.3c1.5,0.7,3,1.3,4.5,2c20,8.7,41,16.2,59.7,27.5c27.5,16.6,55.1,33.2,82.6,49.8
				c24.2,14.6,48.5,29.2,72.7,43.8c2,1.2,3.7,2.4,5.5,3.8c3.3,2.4,4.5,6.9,7.8,9.3c0.2,0.2,0.4,0.3,0.5,0.4c-0.1-0.1-0.1-0.1,0,0
				c0.8,0.8,1.6,1.6,2.4,2.4c6.2,6,12.4,11.9,18.5,17.9c2.2,2.2,4.5,3.3,6.7,5.5c0.5,0.5,1.5,1.9,0.4,0.1c0.3,0.4,0.5,0.8,0.8,1.2
				c0.2,0.9,2.7,2.7,3.5,3.3c1.8,2.8,3.9,3.6,5.8,6.4c0.1,0.3,0.2,0.6,0.4,0.9c3.2,6.4,6.5,12.7,9.7,19.1c0.5,1.1,1,2.2,1.5,3.4
				c0.1,0.3,0.3,0.6,0.4,0.9c0,0.1,0,0.3,0.1,0.6c0.8,3.9,1.6,7.8,2.3,11.7c0.1,0.4,0.1,0.7,0.2,1.1c-0.5,2-0.9,4-1.4,6
				c-0.1,0.6-1.4,4.9-0.5,2.9l-1.8,4.1c-1.2,2.7-2.2,5.7-3.8,8.3c-4.2,6.4-5.3,8.5-11.6,13.4c-2.1,1.6-4.2,3.3-6.3,4.9
				c-0.7,0.6-1.4,1.1-2.1,1.7c1.9-1.4-1.2,0.4-1.8,0.6l-40.7,20c-18.7,9.2-37.6,17.7-55.3,28.7c-17.6,10.9-35.3,16.9-51.3,29.5
				c-2.6,0.8-3.9,3.4-6.8,3.4c-3,0-7.1-0.8-9.4,1.5c-2.6,2.6-5.7,4.7-5.7,8.6c0,2.6-0.7,2-2,4.7c0,0.1-2,2.2-2,2.3
				c-10.3,9-16.5,17-26.8,25.9c-8,7-15.3,17.4-22.5,25.3c-4.1,4.4-7.6,8.5-14,14.1c-0.6,0.5-1.2,1.1-1.8,1.6c0,0,0,0-0.1,0
				c-1.6,1-3.2,3-4.8,4c-2.5,1.5-4.7,2.9-7.3,4c-3.5,1.5-7.1,3-10.6,4.5c1.1-0.5-0.7,0.1-2,0.5c-2.3,0.7-4.7,1.4-7,2.1
				c-0.4,0.1-0.9,0.3-1.3,0.4c0,0-0.1,0-0.1,0c-1.7,0-3.4,0.1-5.1,0.1c-3.8,0.1-7.6,0.2-11.5,0.3c2.2-0.1-0.5-0.1-1-0.2
				c-1.4-0.2-2.8-0.4-4.2-0.7c-2-0.3-3.9-0.7-5.8-1.2c-0.1-0.2-0.2-0.3-0.4-0.6c-0.7-1-1.5-1.9-2.2-2.9c-1.3-1.7-4.1-2.7-5.8-3.8
				c-3.9-2.3-9.9-0.7-13.3,1.6c-2.9,2.1-4.4,2.8-6.2,4.7c-5.8,0.2-12.2,1-17.8,1c-3.1,0-6.6,3-9.2,4.4c-3.2,1.8-3.2,3-4.9,6.3
				c-2.4,4.7-3,13.8-3.2,19c-0.5,9.1-1,18.1-1.5,27.2c-0.2,2.8-0.3,5.6-0.5,8.4c0,0.6-0.3,2.3,0.1,0.2l-0.9,5.2
				c-0.4,2.2-0.8,4.3-1.2,6.5c-0.2,0.9-1.3,4.1-0.2,2.2c-1.8,3.1-3.7,6.3-5.5,9.4c-1,1.6-1.9,3.3-2.9,4.9c-0.6,1-1.6,2-0.4,0.9
				l-5.4,5.1c-6.4,6.1-12.8,12.1-19.2,18.2c-1.8,1.7-3.6,3.4-5.5,5.2H724c7.6-7.2,15.2-14.4,22.7-21.5c4.1-3.9,6.6-10.5,9.4-15.3
				c3.1-5.4,3.3-12,4.4-18c0.9-5,0.7-10.3,1-15.3c0.5-8.9,1-17.9,1.5-26.8c0.1-1.9,0.2-3.9,0.3-5.8c0.2-0.3,0.3-0.7,0.5-1
				c1-1.9,2.9-2.8,3.9-4.8c-0.8,1.6-1,1.7,0.7,0.8c0.9-0.5,0.8-1,1.8-1.5s1.8-1,2.8-1.5c0.1-0.1,0.2-0.1,0.2-0.1
				c3.2-0.2,5.8-1,9.2-1h5c1.3,2.2,2.7,4.6,4.5,6c1.5,1.2,3,2.4,4.5,3.6c2.1,1.7,4.7,1.3,7.3,1.3c7.9,0,12.1-3.6,15.1-10.1
				c2.4,0.4,5.4-1.5,7.8-1.1c6,1,12.8-0.1,18.9-0.3c5.8-0.2,12.4-3.5,17.7-5.8c6.7-2.9,12.4-5.8,18.6-9.7c3-1.9,5.7-4.1,8.4-6.6
				c3.7-1.3,7.4-2.4,10.7-4.6c6.2-3.9,12.3-7.8,18.5-11.7c9.4-5.9,20.1-9.9,30.2-14.6c8.5-4,16.5-8.8,24.6-13.5
				c22.8,34.3,45.7,68.6,68.5,102.9c12,18,20.5,35.9,32.5,53.9c-1.8,7.3-1.4,14.5-0.9,22h9.1c0.5-3.1,0.9-6.3,1.4-9.4
				c0.4-2.5,2-3.3,3.9-5.1c0.9,0.2,2-2,3.2-1.8c1.3,0.2,2.3-0.6,3.5-0.1c1.1,0.4,1.3-0.1,2.4,0.3c0.4,0.1,1.6,0.2,1.7,0.3
				c0,0,0,0,0.1,0c1.8,0.8,2.7,0.7,4.5,1.5c0,0,0.1,0,0.1,0c0.7,0.8,1.4,1.5,2.1,2.3c0.6,0.7,1.3,1.4,1.9,2.1
				c0.4,0.4,1.6,2.4,0.7,0.7c0.9,1.6,1.8,3.2,2.8,4.8c0.2,0.3,0.3,0.5,0.4,0.6c0,0.2,0,0.4,0,0.7v3.1h9.4c0-1.1,0-2.3-0.2-3.4
				l10.8-11.3c2.4-2.5,4.7-5.4,7.4-7.6c6.9-5.4,13.9-10.8,20.8-16.2c24-18.6,48-37.2,71.9-55.8c1.6-1.2,3.2-2.5,4.8-3.7v-20.3
				c-17.4,13.5-34.9,27-52.3,40.6l-34.7,26.9l-9.9,7.7c-0.6,0.5-1.2,1-1.9,1.4c1.8-1.4-1.1,0.7-1.8,1.2c-9,6.2-18,12.4-27,18.6
				c-1.8-1.3-4.4-2-6.3-2.8c-2.3-1-4.7-1.9-7-2.8c-1.8-0.7-4-0.8-6-1.1c-0.9-0.9-1.9-1.9-2.8-2.8c-3.9-3.9-7.9-7.9-11.8-11.8
				c-0.2-0.2-0.3-0.3-0.5-0.4c-13.9-20.9-27.9-41.8-41.8-62.7c-17.2-25.8-34.4-51.6-51.6-77.4c2.5-2,5-4.2,7.4-6.1
				c4-3.1,9.4-6.1,12.8-10c5.7-6.4,11.2-12.9,17.3-18.9c6.5-6.5,11.8-13.7,17.4-21.1c0,0,0,0,0.1-0.1c0.5-0.4,1-0.8,1.5-1.2
				c2.1-1.7,4.2-3.4,6.2-5.1c4-3.2,7.9-6.5,11.9-9.7c0.1,0,0.1-0.1,0.3-0.2c1-0.7,1.9-1.3,2.9-2l7.1-4.9c3-2.1,5-5.5,7-8.6
				c12.4-6.1,24.8-12.2,37.3-18.3c8.9-4.4,16.5-8.4,23.9-15.3c9.6-8.9,15.5-20.3,18.5-33.1c2.1-9.1,1.5-17.5,0.3-26.1
				c1.4-3.4-1.2-6.8,0.2-10.1C1154.6,257.6,1155.4,256.8,1156.3,256.1 M682.8,34.3c0.1,0.1,0.2,0.2,0.3,0.3c-0.1,0-0.2,0-0.3,0
				C682.8,34.6,682.8,34.5,682.8,34.3 M655.6,44.8c-2.3,4.4-5.4,9.5-2.9,14.6c0.3,0.7,0.7,1.3,1,2c-2.3,0.8-4.6,2.1-6.8,3
				c-25.5,11.1-51,22.1-76.6,33.2c-1.3,0.6-2.5,1.1-3.8,1.7c0,0-0.1,0-0.1,0.1c2.5-1.1,0.7-0.3-1.3-0.3h-9.3c2.2,0-1.4-0.8-2.3-1.2
				c-1.4-0.6-2.8-1.1-4.3-1.7c-2.4-0.9-6.3-0.2-8.9-0.2c0,0,0,0,0,0c-0.9-0.3-1.7-0.5-2.6-0.8c-6.6-2-13.2-4-19.8-6.1
				c-10.2-3.1-20.5-7.3-31.2-8.6c-8.4-1-15.8-1.8-24.2-1.4c-18.4,0.9-36.8,1.8-55.1,2.6c0.6-0.1,1.2-0.3,1.8-0.4
				c2.8-0.7,5.6-1.3,8.4-2c0.6-0.2,1.3-0.3,1.9-0.5c0,0,0,0,0,0c0,0,0,0,0.1,0c13-1.5,26.8-1.9,39.5-4.7c5.8-1.3,12-2,17.4-4.6
				c7.4-3.4,14.9-6.9,22.3-10.3c0.7-0.3,1.3-0.6,2-0.9c1.1-0.1,2.3-0.3,3.4-0.4c6.2-0.8,12.5-1.5,18.7-2.3
				c18.2-2.2,36.4-4.5,54.7-6.7c2.7-0.3,5.5-0.7,8.2-1c0.6,0.1,1.4,0,2.1-0.3c7.4-0.9,14.7-1.8,22.1-2.7c10.4-1.3,24.6-1.2,35.1-1.4
				c4.3,0,8-0.1,11.3-0.2C656.1,44,655.8,44.4,655.6,44.8 M658.6,69.9C657.8,69.7,657.7,69.4,658.6,69.9 M635.7,35.7
				c6.7-1.2,13.4-2.4,20.1-3.6c0.4-0.1,0.9-0.2,1.3-0.2c-2.3,0.4,0.8,0.1,1.5,0.1h7.8h7.6v0c0,0.3-0.7,0.6-1.1,0.9
				c-0.1,0-0.1,0.1-0.1,0.1c-2,0.6-4,1.3-6,1.9C656.4,35.1,646,35.5,635.7,35.7 M661.1,53.4C661.1,53,661.2,53,661.1,53.4 M697,51
				V56v1.6c-0.1,0.2-0.3,0.5-0.5,0.8c-0.8,1.2-1.6,2.4-2.3,3.6c-0.2,0.1-0.4,0.2-0.7,0.3c-1.6,0.8-3.3,1.6-4.9,2.4
				c-0.5,0.3-1,0.5-1.6,0.8c-0.1,0-0.3,0-0.8,0.2c-1.8,0.4-3.5,0.8-5.3,1.3c-0.4,0.1-1.3,0.1-1,0.1h-1.2h-5c1.6,0,0.6,0-0.1-0.2
				l-3.4-1.2c-0.7-0.2-1.4-0.5-2.1-0.7c0,0-0.1,0-0.1-0.1l-1-0.6l-3.6-3.8c-0.2-0.2-0.3-0.3-0.4-0.4c0,0,0-0.1-0.1-0.2
				c-0.6-1.3-1.3-2.6-1.9-3.8v-1.6c0-0.3,0-0.5,0-0.6c0.8-1.6,1.7-3.2,2.5-4.7c-0.9,1.6,0.2-0.1,0.6-0.6c0.8-0.9,1.7-1.8,2.5-2.7
				c0.6-0.6,1.2-1.3,1.8-1.9c0.1,0,0.2-0.1,0.3-0.1c0.6-0.2,1.1-0.4,1.6-0.5c7.3-0.1,13.9-0.1,23.3,0.2c0.4,0.5,0.9,1,1.3,1.5
				c0.3,0.4,0.6,0.8,0.7,1c0.2,0.5,0.4,0.9,0.6,1.4l0.8,1.9C696.5,47.8,697,50.3,697,51 M697.1,57.3
				C697.2,56.9,697.3,56.9,697.1,57.3 M711.6,48.2c-1.3,1.2-2.6,2.3-3.9,3.5c-0.3,0.2-1.7,1.3-0.1,0.2c-0.4,0.3-0.9,0.6-1.3,0.9
				c0.1-2.2,0.1-4.3-0.6-5.8c-0.4-1.1-0.9-2.1-1.3-3c2.7,0.1,7,0.4,12,0.7C714.7,45.7,713,47,711.6,48.2 M708.1,35.2
				c-3.4-0.2-6.8-0.3-10.2-0.4c-1-1-2.1-1.9-3.2-2.8c1.7,0.1,3.4,0.2,5.1,0.4c3.5,0.4,7,0.9,10.5,1.3c1.1,0.1,2.4,0.3,0.7,0.1
				c1.1,0.2,2.2,0.3,3.3,0.5c4.4,0.6,8.8,1.3,13.2,2C721,35.9,714.6,35.6,708.1,35.2 M763.4,529.7c0-0.1,0-0.2,0-0.3
				C763.4,528.7,763.5,529,763.4,529.7 M773.4,521.9C774.2,521.5,774.2,521.7,773.4,521.9 M804.5,510.9
				C803.9,510.8,803.9,510.7,804.5,510.9 M801.8,510.8C802,510.8,802,510.8,801.8,510.8 M807.9,521.5c-1.3,0.4-2.6,0.8-3.9,1.3
				c-0.3,0.1-0.5,0.2-0.7,0.2c-0.1,0-0.1,0-0.2,0h-1.9c-0.3-0.2-0.6-0.5-0.9-0.7c-0.7-0.5-1.3-1.1-2-1.6c-0.1-0.1-0.2-0.2-0.3-0.2
				c-0.8-1.2-0.6-2.4-1.4-3.6c0.9-1.3,0.8-2.6,1.5-3.6c0.9-0.6,1.7-1.2,2.6-1.8c0.3-0.2,0.6-0.4,0.8-0.5h1.5h1.7
				c0.2,0.1,0.4,0.2,0.6,0.3l2.6,1.6c0,0,0.1,0,0.1,0.1c0.3,0.4,0.6,0.8,0.9,1.1c0.8,1,0.4,1.7,1.1,2.4
				C809.1,518.2,809.1,519.8,807.9,521.5 M844.8,511.5C845.7,511.3,845.4,511.5,844.8,511.5 M1128.1,609.2c-1.5,1.7-2.9,3.4-4.4,4.9
				c-2.1,2.2-4.3,4.4-6.4,6.6c-0.6-0.9-1.3-1.8-2-2.7C1119.6,615.1,1123.9,612.1,1128.1,609.2 M1090.4,604.7
				C1091.2,605.1,1091.4,605.6,1090.4,604.7 M957.9,421h4.2h1.7c0.1,0.1,0.2,1.1,0.3,1.2v4.7v0.7c-0.2,0.5-0.5,0.9-0.7,1.4h-1.1h-1
				c-0.1,0-0.3-0.1-0.5-0.1c-1.5-0.5-2.9-1-4.4-1.4c0-1.6-0.1-3.1-0.2-4.6L957.9,421z M961.3,429C961.5,429,961.5,429,961.3,429
				 M963.8,449.8c-4,2.3-8,4.6-12,7c-7.8,4.5-16.6,7.7-24.7,11.5c-6.7,3.1-12.5,6.4-18.7,10.3c-0.2,0.2-0.5,0.3-0.7,0.5
				c3.3-3.9,8.4-7.3,12.3-10.7c6-5.3,12-10.5,18-15.8c5.8-5.1,10.7-10.2,16.5-15.4c0.1-0.1,0.1-0.1,0.2-0.2c1.5,0.5,3.1,1,4.6,1.5
				c1.6,0.5,2.4,1.6,4.2,1.5c1.9,2.9,3.8,3.7,5.7,6.6L963.8,449.8z M1030.2,386.8c-1.5,1.2-2.7,3.5-3.9,5.1c-2.3,3.1-4.6,6.1-7,9.2
				c-0.4,0.5-2.2,2.4-0.6,0.8l-2.1,2.1c-2.7,2.7-5.3,5.3-8,8c-3.8,3.8-7.2,8.1-10.8,12.1c-5.9,6.8-13.8,12.1-21.3,17.5
				c-1.8-2.7-1.6-5.5-3.5-8.2c1-1.8-0.2-3.6-0.2-5.6v-4.2c20.7-14.6,41.6-30.5,63.1-43.9c2.6-1.6,5.2-3,8-4.4
				C1039.5,379.2,1034.8,383,1030.2,386.8"/>
		</g>
		<g id="Grignotin">
			<polyline id="Chemin" class="st5" points="1120.5,326 1027,373 1015.5,342 1002.5,282.5 1004,259.5 1013.5,253.6 
				1002.3,207.8 969,220 952.9,185.6 934.1,192.6 924.6,176.2 894.4,192.7 853,151.7 856.5,145.5 818.7,127.4 			"/>
			<path class="st6" d="M838.2,87.7c0,11.2-9,20.2-20.2,20.2s-20.2-9-20.2-20.2s9-20.2,20.2-20.2S838.2,76.5,838.2,87.7"/>
			<path class="st0" d="M818,66c-12.2,0-22.2,9.9-22.2,22.2c0,11.5,16.6,23.9,21.4,39.2c0.1,0.3,0.4,0.6,0.8,0.6
				c0.3,0,0.7-0.2,0.8-0.6c4.7-15.7,21.4-27.7,21.4-39.2C840.2,75.9,830.2,66,818,66 M818,105c-9.6,0-17.4-7.8-17.4-17.4
				c0-9.6,7.8-17.4,17.4-17.4c9.6,0,17.4,7.8,17.4,17.4C835.4,97.2,827.6,105,818,105"/>
			<path class="st3" d="M831.9,91c0,0,0.4,2.4-3.2,2.7c-3.6,0.2-19.9-0.1-19.9-0.1s-3.4,0.1-4-2.6c0.7,0.2,1,0.8,2.4-0.1
				c1.4-0.9,2.7-0.7,3.8,0.1c1.1,0.8,5.4,0.5,6.8-0.7c1.4-0.7,2.8,0.9,3.7,0.9s3.1,0.5,6-1.1c1.5-0.8,2.2,0.9,2.2,0.9
				S831.1,91.8,831.9,91z"/>
			<path class="st3" d="M810.6,81.8c0,0-8.5,2.6-5.1,5.3c3.4,2.7,27.1,2.3,26.8-0.5c-0.4-2.8-2.8-4.6-5-4.8
				c-2.2,0.5-4.2,2.5-4.3,3.1c-0.1-3.1,1.4-3.8,1.4-3.8s-2-1-3.3-0.4c-0.7-0.3-4,2-4.1,4.9c-0.3-2.3-0.1-2.8,0.7-4.7
				c-2.8-1.2-7,2.7-7,4.5C810.1,82.5,810.1,83.4,810.6,81.8z"/>
			<path class="st3" d="M806.1,88.4c0,0-1.4,0.8-1,1.6s0.7,0.8,1.4,0.4c0.7-0.4,2.5-1.9,5.2-0.2c2.6,1.7,5.7-0.5,6.3-0.7
				c0.5-0.2,1.2-0.3,5.3,1.4c2.1-0.1,3.8-1.2,4.5-1.4c0.7-0.2,1.6-0.1,3.2,1.1c0.9,0,1.2-0.8,0.5-1.5c-0.7-0.7-0.9-0.7-0.9-0.7
				s-2,0.5-5,0.7c-3,0.1-14.6,0.1-14.6,0.1S807.6,89,806.1,88.4z"/>
		</g>
		<g id="Boulangerie">
			<polyline id="Chemin" class="st5" points="1120.5,326.5 1028,372.5 1015,345.5 996,356 978,330.5 963,315.5 946,337.5 
				891.2,375.4 			"/>
			<path class="st6" d="M912.2,335.7c0,11.2-9,20.2-20.2,20.2s-20.2-9-20.2-20.2s9-20.2,20.2-20.2S912.2,324.5,912.2,335.7"/>
			<path class="st0" d="M892,314c-12.2,0-22.2,9.9-22.2,22.2c0,11.5,16.6,23.9,21.4,39.2c0.1,0.3,0.4,0.6,0.8,0.6
				c0.3,0,0.7-0.2,0.8-0.6c4.7-15.7,21.4-27.7,21.4-39.2C914.2,323.9,904.2,314,892,314 M892,353c-9.6,0-17.4-7.8-17.4-17.4
				c0-9.6,7.8-17.4,17.4-17.4c9.6,0,17.4,7.8,17.4,17.4C909.4,345.2,901.6,353,892,353"/>
			<path class="st3" d="M883.8,328.5c0,0-8.5,2.6-5.1,5.3c3.4,2.7,27.1,2.3,26.8-0.5c-0.4-2.8-2.8-4.6-5-4.8
				c-2.2,0.5-4.2,2.5-4.3,3.1c-0.1-3.1,1.4-3.8,1.4-3.8s-2-1-3.3-0.4c-0.7-0.3-4,2-4.1,4.9c-0.3-2.3-0.1-2.8,0.7-4.7
				c-2.8-1.2-7,2.7-7,4.5C883.3,329.3,883.3,330.1,883.8,328.5z"/>
			<path class="st3" d="M879.3,335.1c0,0-1.4,0.8-1,1.6s0.7,0.8,1.4,0.4c0.7-0.4,2.5-1.9,5.2-0.2c2.6,1.7,5.7-0.5,6.3-0.7
				c0.5-0.2,1.2-0.3,5.3,1.4c2.1-0.1,3.8-1.2,4.5-1.4c0.7-0.2,1.6-0.1,3.2,1.1c0.9,0,1.2-0.8,0.5-1.5c-0.7-0.7-0.9-0.7-0.9-0.7
				s-2,0.5-5,0.7c-3,0.1-14.6,0.1-14.6,0.1S880.8,335.7,879.3,335.1z"/>
			<path class="st3" d="M905.1,337.7c0,0,0.4,2.4-3.2,2.7c-3.6,0.2-19.9-0.1-19.9-0.1s-3.4,0.1-4-2.6c0.7,0.2,1,0.8,2.4-0.1
				c1.4-0.9,2.7-0.7,3.8,0.1c1.1,0.8,5.4,0.5,6.8-0.7c1.4-0.7,2.8,0.9,3.7,0.9s3.1,0.5,6-1.1c1.5-0.8,2.2,0.9,2.2,0.9
				S904.3,338.5,905.1,337.7z"/>
		</g>
		<g id="Soeurs">
			<polyline id="Chemin" class="st5" points="1120.5,327.5 1028.5,372 1015,344.5 1002,281 984,268.9 			"/>
			<path class="st6" d="M1004.2,228.7c0,11.2-9,20.2-20.2,20.2s-20.2-9-20.2-20.2s9-20.2,20.2-20.2S1004.2,217.5,1004.2,228.7"/>
			<path class="st0" d="M984,207c-12.2,0-22.2,9.9-22.2,22.2c0,11.5,16.6,23.9,21.4,39.2c0.1,0.3,0.4,0.6,0.8,0.6
				c0.3,0,0.7-0.2,0.8-0.6c4.7-15.7,21.4-27.7,21.4-39.2C1006.2,216.9,996.2,207,984,207 M984,246c-9.6,0-17.4-7.8-17.4-17.4
				c0-9.6,7.8-17.4,17.4-17.4c9.6,0,17.4,7.8,17.4,17.4C1001.4,238.2,993.6,246,984,246"/>
			<path class="st3" d="M976.7,222.9c0,0-8.5,2.6-5.1,5.3c3.4,2.7,27.1,2.3,26.8-0.5c-0.4-2.8-2.8-4.6-5-4.8
				c-2.2,0.5-4.2,2.5-4.3,3.1c-0.1-3.1,1.4-3.8,1.4-3.8s-2-1-3.3-0.4c-0.7-0.3-4,2-4.1,4.9c-0.3-2.3-0.1-2.8,0.7-4.7
				c-2.8-1.2-7,2.7-7,4.5C976.2,223.6,976.2,224.5,976.7,222.9z"/>
			<path class="st3" d="M972.2,229.4c0,0-1.4,0.8-1,1.6s0.7,0.8,1.4,0.4c0.7-0.4,2.5-1.9,5.2-0.2c2.6,1.7,5.7-0.5,6.3-0.7
				c0.5-0.2,1.2-0.3,5.3,1.4c2.1-0.1,3.8-1.2,4.5-1.4c0.7-0.2,1.6-0.1,3.2,1.1c0.9,0,1.2-0.8,0.5-1.5c-0.7-0.7-0.9-0.7-0.9-0.7
				s-2,0.5-5,0.7c-3,0.1-14.6,0.1-14.6,0.1S973.7,230,972.2,229.4z"/>
			<path class="st3" d="M998,232c0,0,0.4,2.4-3.2,2.7c-3.6,0.2-19.9-0.1-19.9-0.1s-3.4,0.1-4-2.6c0.7,0.2,1,0.8,2.4-0.1
				c1.4-0.9,2.7-0.7,3.8,0.1c1.1,0.8,5.4,0.5,6.8-0.7c1.4-0.7,2.8,0.9,3.7,0.9s3.1,0.5,6-1.1c1.5-0.8,2.2,0.9,2.2,0.9
				S997.2,232.8,998,232z"/>
		</g>
		<g id="Henri_Maus">
			<path id="Chemin" class="st5" d="M1119.7,328c0,0-79.7,39-82,39.7"/>
			<path class="st6" d="M1056.2,324.7c0,11.2-9,20.2-20.2,20.2s-20.2-9-20.2-20.2s9-20.2,20.2-20.2S1056.2,313.5,1056.2,324.7"/>
			<path class="st0" d="M1036,303c-12.2,0-22.2,9.9-22.2,22.2c0,11.5,16.6,23.9,21.4,39.2c0.1,0.3,0.4,0.6,0.8,0.6
				c0.3,0,0.7-0.2,0.8-0.6c4.7-15.7,21.4-27.7,21.4-39.2C1058.2,312.9,1048.2,303,1036,303 M1036,342c-9.6,0-17.4-7.8-17.4-17.4
				c0-9.6,7.8-17.4,17.4-17.4c9.6,0,17.4,7.8,17.4,17.4C1053.4,334.2,1045.6,342,1036,342"/>
			<path class="st3" d="M1028.1,318.6c0,0-8.5,2.6-5.1,5.3c3.4,2.7,27.1,2.3,26.8-0.5c-0.4-2.8-2.8-4.6-5-4.8
				c-2.2,0.5-4.2,2.5-4.3,3.1c-0.1-3.1,1.4-3.8,1.4-3.8s-2-1-3.3-0.4c-0.7-0.3-4,2-4.1,4.9c-0.3-2.3-0.1-2.8,0.7-4.7
				c-2.8-1.2-7,2.7-7,4.5C1027.6,319.3,1027.7,320.2,1028.1,318.6z"/>
			<path class="st3" d="M1023.6,325.1c0,0-1.4,0.8-1,1.6s0.7,0.8,1.4,0.4c0.7-0.4,2.5-1.9,5.2-0.2c2.6,1.7,5.7-0.5,6.3-0.7
				c0.5-0.2,1.2-0.3,5.3,1.4c2.1-0.1,3.8-1.2,4.5-1.4c0.7-0.2,1.6-0.1,3.2,1.1c0.9,0,1.2-0.8,0.5-1.5c-0.7-0.7-0.9-0.7-0.9-0.7
				s-2,0.5-5,0.7c-3,0.1-14.6,0.1-14.6,0.1S1025.1,325.7,1023.6,325.1z"/>
			<path class="st3" d="M1049.4,327.7c0,0,0.4,2.4-3.2,2.7c-3.6,0.2-19.9-0.1-19.9-0.1s-3.4,0.1-4-2.6c0.7,0.2,1,0.8,2.4-0.1
				c1.4-0.9,2.7-0.7,3.8,0.1c1.1,0.8,5.4,0.5,6.8-0.7c1.4-0.7,2.8,0.9,3.7,0.9s3.1,0.5,6-1.1c1.5-0.8,2.2,0.9,2.2,0.9
				S1048.7,328.5,1049.4,327.7z"/>
		</g>
		<g id="Friterie">
			<polyline id="Chemin" class="st5" points="1119,327 1029,372 1018,348 936,390 913,356 896,318 859,271 809,199 764,168 
				710,152 714,169 			"/>
			<path class="st6" d="M739.2,126.7c0,11.2-9,20.2-20.2,20.2s-20.2-9-20.2-20.2s9-20.2,20.2-20.2S739.2,115.5,739.2,126.7"/>
			<path class="st0" d="M719,105c-12.2,0-22.2,9.9-22.2,22.2c0,11.5,16.6,23.9,21.4,39.2c0.1,0.3,0.4,0.6,0.8,0.6
				c0.3,0,0.7-0.2,0.8-0.6c4.7-15.7,21.4-27.7,21.4-39.2C741.2,114.9,731.2,105,719,105 M719,144c-9.6,0-17.4-7.8-17.4-17.4
				c0-9.6,7.8-17.4,17.4-17.4c9.6,0,17.4,7.8,17.4,17.4C736.4,136.2,728.6,144,719,144"/>
			<g>
				<polygon class="st0" points="712.2,141.1 725.8,141.1 729.1,122.4 708.9,122.4 				"/>
				<polygon class="st0" points="723.3,114.2 721.2,114.2 721.2,121.4 723.3,121.4 				"/>
				<polygon class="st0" points="726.6,119.1 724.5,119 724.4,121.4 726.5,121.4 				"/>
				<polygon class="st0" points="716.9,121.4 716.9,117.2 716.2,113.3 714.1,113.7 715.7,121.4 				"/>
				<polygon class="st0" points="714.2,121.5 713.5,118.4 711.4,118.8 712.1,121.5 				"/>
				<polygon class="st0" points="720.1,121.4 720.1,110.9 718,110.9 718,121.4 				"/>
			</g>
		</g>
		<g id="Mac_Do">
			<polyline id="Chemin" class="st5" points="1119.5,327 1029.5,372 1017.5,349 935.5,389 912.5,354 896.5,318 804.5,195 
				759.5,167 574.5,113 545.5,98 			"/>
			<path class="st6" d="M559.7,55.6c0,11.4-9,20.6-20.2,20.6s-20.2-9.2-20.2-20.6s9-20.6,20.2-20.6S559.7,44.3,559.7,55.6"/>
			<path class="st0" d="M539.5,33.5c-12.2,0-22.2,10.2-22.2,22.6c0,11.7,16.6,24.4,21.4,40c0.1,0.3,0.4,0.6,0.8,0.6
				c0.3,0,0.7-0.2,0.8-0.6c4.7-16,21.4-28.3,21.4-40C561.7,43.7,551.7,33.5,539.5,33.5 M539.5,73.3c-9.6,0-17.4-8-17.4-17.7
				c0-9.8,7.8-17.7,17.4-17.7c9.6,0,17.4,8,17.4,17.7C556.9,65.3,549.1,73.3,539.5,73.3"/>
			<g id="Burger_1_">
				<g>
					<path class="st0" d="M551.1,60.7h-22.3c-0.2,0-0.3,0.1-0.3,0.3v1.7c0,1,0.8,1.8,1.8,1.8h19.3c1,0,1.8-0.8,1.8-1.8V61
						C551.4,60.8,551.3,60.7,551.1,60.7z"/>
					<path class="st0" d="M551.2,56.1h-22.4c-0.9,0-1.7,0.8-1.7,1.9s0.8,1.9,1.7,1.9h22.4c0.9,0,1.7-0.8,1.7-1.9
						S552.1,56.1,551.2,56.1z"/>
					<path class="st0" d="M528.9,53.3h22.3l0,0c0.2,0,0.3-0.1,0.3-0.3c0,0,0,0,0,0c0-3-1.2-5.4-3.4-7.1c-2-1.5-4.8-2.3-8.1-2.3
						c-3.2,0-6,0.8-8.1,2.3c-2.2,1.7-3.4,4.1-3.4,7.1C528.6,53.2,528.7,53.3,528.9,53.3z"/>
					<path class="st0" d="M527.7,55.5h24.5c0.3,0,0.6-0.3,0.6-0.6s-0.3-0.6-0.6-0.6h-24.5c-0.3,0-0.6,0.3-0.6,0.6
						S527.4,55.5,527.7,55.5z"/>
				</g>
			</g>
		</g>
		<g id="Ots">
			<path id="Chemin" class="st5" d="M1119.5,327l-90,44l-12-24l-82,42l-21-33l-31,23l-36,42c0,0-13.1,8.2-45,5c-20-2-22,22-38,28
				s-67,22-67,22l-32,8.9l0.7,19.5"/>
			<path class="st6" d="M685.7,464.7c0,11.2-9,20.2-20.2,20.2s-20.2-9-20.2-20.2s9-20.2,20.2-20.2S685.7,453.5,685.7,464.7"/>
			<path class="st0" d="M665.5,443c-12.2,0-22.2,9.9-22.2,22.2c0,11.5,16.6,23.9,21.4,39.2c0.1,0.3,0.4,0.6,0.8,0.6
				c0.3,0,0.7-0.2,0.8-0.6c4.7-15.7,21.4-27.7,21.4-39.2C687.7,452.9,677.7,443,665.5,443 M665.5,482c-9.6,0-17.4-7.8-17.4-17.4
				c0-9.6,7.8-17.4,17.4-17.4c9.6,0,17.4,7.8,17.4,17.4C682.9,474.2,675.1,482,665.5,482"/>
			<g id="Burger">
				<g>
					<path class="st0" d="M677.6,470.2h-22.3c-0.2,0-0.3,0.1-0.3,0.3v1.7c0,1,0.8,1.8,1.8,1.8h19.3c1,0,1.8-0.8,1.8-1.8v-1.7
						C677.9,470.3,677.8,470.2,677.6,470.2z"/>
					<path class="st0" d="M677.7,465.6h-22.4c-0.9,0-1.7,0.8-1.7,1.9s0.8,1.9,1.7,1.9h22.4c0.9,0,1.7-0.8,1.7-1.9
						S678.6,465.6,677.7,465.6z"/>
					<path class="st0" d="M655.4,462.8h22.3l0,0c0.2,0,0.3-0.1,0.3-0.3c0,0,0,0,0,0c0-3-1.2-5.4-3.4-7.1c-2-1.5-4.8-2.3-8.1-2.3
						c-3.2,0-6,0.8-8.1,2.3c-2.2,1.7-3.4,4.1-3.4,7.1C655.1,462.7,655.2,462.8,655.4,462.8z"/>
					<path class="st0" d="M654.2,465h24.5c0.3,0,0.6-0.3,0.6-0.6s-0.3-0.6-0.6-0.6h-24.5c-0.3,0-0.6,0.3-0.6,0.6
						S653.9,465,654.2,465z"/>
				</g>
			</g>
		</g>
		<g id="Pizza_Hut">
			<path id="Chemin" class="st5" d="M1119,326l-89,44l-14-23l-84,41l-18-31l-32,22l-34,42c0,0-10,8-52,5c-15,5-19,21-29,23
				c0,0-14,15-23,16s-87,20-87,20l-15-41c0,0-36.5,23-42,25c-6-7-15-25-15-25"/>
			<path class="st6" d="M610.2,401.7c0,11.2-9,20.2-20.2,20.2s-20.2-9-20.2-20.2s9-20.2,20.2-20.2S610.2,390.5,610.2,401.7"/>
			<path class="st0" d="M590,380c-12.2,0-22.2,9.9-22.2,22.2c0,11.5,16.6,23.9,21.4,39.2c0.1,0.3,0.4,0.6,0.8,0.6
				c0.3,0,0.7-0.2,0.8-0.6c4.7-15.7,21.4-27.7,21.4-39.2C612.2,389.9,602.2,380,590,380 M590,419c-9.6,0-17.4-7.8-17.4-17.4
				c0-9.6,7.8-17.4,17.4-17.4c9.6,0,17.4,7.8,17.4,17.4C607.4,411.2,599.6,419,590,419"/>
			<g id="Pizza">
				<g>
					<g>
						<g>
							<path class="st0" d="M597.9,403.5c-0.3-0.5-0.4-1.1-0.5-1.7c-0.1-1.5,0.4-2.8,1.3-2.9c0.1,0,0.3,0,0.4,0.1l2-7.9l-21.3,7.7
								c0.4,1,0.8,2,1.3,3c2.8,5.2,7.2,8.8,12.4,10.7c0,0,1.6,0.6,2.3,0.3L597.9,403.5z M597.2,399c0.1,0.9-0.6,1.6-1.5,1.7
								c-0.9,0.1-1.6-0.6-1.7-1.5c-0.1-0.9,0.6-1.6,1.5-1.7C596.3,397.4,597.1,398.1,597.2,399z M586.2,400.5
								c-0.1-1.3,0.8-2.3,2.1-2.4c1.3-0.1,2.3,0.8,2.4,2.1c0.1,1.3-0.8,2.3-2.1,2.4C587.4,402.7,586.3,401.8,586.2,400.5z
								 M590.5,405.8c-0.1-0.8,0.5-1.5,1.4-1.6c0.8-0.1,1.5,0.5,1.6,1.4s-0.5,1.5-1.4,1.6C591.3,407.2,590.5,406.6,590.5,405.8z"/>
						</g>
					</g>
				</g>
				<g>
					<g>
						<g>
							<path class="st0" d="M582.2,409.9c-4.8-4.8-6.1-9.9-6.2-10.2l2.7-0.6l-1.3,0.3l1.3-0.3c0.1,0.5,3,11.5,16.7,15.3l-0.7,2.6
								C589,415.4,585,412.7,582.2,409.9z"/>
						</g>
					</g>
				</g>
			</g>
		</g>
		<g id="Chez_Isa">
			<path id="Chemin" class="st5" d="M1119,327l-90,43l-13-23l-84,42l-18-31l-32,21l-33,42c0,0-33,7-55,5c-16,12-23,21-33,27
				c-8-9-19-18-19-18l-60-22l-57-43l-35-27l-46-11l-83-33"/>
			<path class="st6" d="M476.2,254.7c0,11.2-9,20.2-20.2,20.2s-20.2-9-20.2-20.2s9-20.2,20.2-20.2S476.2,243.5,476.2,254.7"/>
			<path class="st0" d="M456,233c-12.2,0-22.2,9.9-22.2,22.2c0,11.5,16.6,23.9,21.4,39.2c0.1,0.3,0.4,0.6,0.8,0.6
				c0.3,0,0.7-0.2,0.8-0.6c4.7-15.7,21.4-27.7,21.4-39.2C478.2,242.9,468.2,233,456,233 M456,272c-9.6,0-17.4-7.8-17.4-17.4
				c0-9.6,7.8-17.4,17.4-17.4c9.6,0,17.4,7.8,17.4,17.4C473.4,264.2,465.6,272,456,272"/>
			<g>
				<polygon class="st0" points="449.7,269.6 463.3,269.6 466.6,250.9 446.4,250.9 				"/>
				<polygon class="st0" points="460.8,242.7 458.7,242.7 458.7,249.9 460.8,249.9 				"/>
				<polygon class="st0" points="464.1,247.6 462,247.5 461.9,249.9 464,249.9 				"/>
				<polygon class="st0" points="454.4,249.9 454.4,245.7 453.7,241.8 451.6,242.2 453.2,249.9 				"/>
				<polygon class="st0" points="451.7,250 451,246.9 448.9,247.3 449.6,250 				"/>
				<polygon class="st0" points="457.6,249.9 457.6,239.4 455.5,239.4 455.5,249.9 				"/>
			</g>
		</g>
		<g id="Le_Delicio">
			<path id="Chemin" class="st5" d="M1119,326l-89,45l-14-23l-83,41l-19-31l-32,21l-31,42c0,0-38,6-59,7c-13,13-29,25-29,25l-20-20
				l-63-20l-76.8-62.1"/>
			<path class="st6" d="M624.2,311.2c0,11.2-9,20.2-20.2,20.2s-20.2-9-20.2-20.2s9-20.2,20.2-20.2S624.2,300,624.2,311.2"/>
			<path class="st0" d="M604,289.5c-12.2,0-22.2,9.9-22.2,22.2c0,11.5,16.6,23.9,21.4,39.2c0.1,0.3,0.4,0.6,0.8,0.6
				c0.3,0,0.7-0.2,0.8-0.6c4.7-15.7,21.4-27.7,21.4-39.2C626.2,299.4,616.2,289.5,604,289.5 M604,328.5c-9.6,0-17.4-7.8-17.4-17.4
				c0-9.6,7.8-17.4,17.4-17.4c9.6,0,17.4,7.8,17.4,17.4C621.4,320.7,613.6,328.5,604,328.5"/>
			<path class="st3" d="M596.7,305.2c0,0-8.5,2.6-5.1,5.3c3.4,2.7,27.1,2.3,26.8-0.5c-0.4-2.8-2.8-4.6-5-4.8
				c-2.2,0.5-4.2,2.5-4.3,3.1c-0.1-3.1,1.4-3.8,1.4-3.8s-2-1-3.3-0.4c-0.7-0.3-4,2-4.1,4.9c-0.3-2.3-0.1-2.8,0.7-4.7
				c-2.8-1.2-7,2.7-7,4.5C596.2,305.9,596.3,306.8,596.7,305.2z"/>
			<path class="st3" d="M592.2,311.8c0,0-1.4,0.8-1,1.6s0.7,0.8,1.4,0.4c0.7-0.4,2.5-1.9,5.2-0.2c2.6,1.7,5.7-0.5,6.3-0.7
				c0.5-0.2,1.2-0.3,5.3,1.4c2.1-0.1,3.8-1.2,4.5-1.4c0.7-0.2,1.6-0.1,3.2,1.1c0.9,0,1.2-0.8,0.5-1.5c-0.7-0.7-0.9-0.7-0.9-0.7
				s-2,0.5-5,0.7c-3,0.1-14.6,0.1-14.6,0.1S593.7,312.3,592.2,311.8z"/>
			<path class="st3" d="M618,314.4c0,0,0.4,2.4-3.2,2.7c-3.6,0.2-19.9-0.1-19.9-0.1s-3.4,0.1-4-2.6c0.7,0.2,1,0.8,2.4-0.1
				c1.4-0.9,2.7-0.7,3.8,0.1c1.1,0.8,5.4,0.5,6.8-0.7c1.4-0.7,2.8,0.9,3.7,0.9s3.1,0.5,6-1.1c1.5-0.8,2.2,0.9,2.2,0.9
				S617.2,315.2,618,314.4z"/>
		</g>
	</g>
</switch>
</svg>
